<svg xmlns="http://www.w3.org/2000/svg" xmlns:xlink="http://www.w3.org/1999/xlink" width="375" viewBox="0 0 375 375" height="375" version="1.0"><defs><clipPath id="d"><path d="M 35 30 L 312 30 L 312 371 L 35 371 Z M 35 30"/></clipPath><clipPath id="e"><path d="M 242.179688 -24.894531 L 369.453125 310.253906 L 133.167969 399.984375 L 5.890625 64.835938 Z M 242.179688 -24.894531"/></clipPath><clipPath id="f"><path d="M 242.179688 -24.894531 L 369.453125 310.253906 L 133.167969 399.984375 L 5.890625 64.835938 Z M 242.179688 -24.894531"/></clipPath><clipPath id="g"><path d="M 242.5 -24.046875 L 369.347656 309.980469 L 127.890625 401.675781 L 1.039062 67.648438 Z M 242.5 -24.046875"/></clipPath><clipPath id="h"><path d="M 242.5 -24.046875 L 369.179688 309.53125 L 132.839844 399.285156 L 6.160156 65.707031 Z M 242.5 -24.046875"/></clipPath><clipPath id="c"><path d="M0 0H370V375H0z"/></clipPath><filter x="0%" y="0%" width="100%" xmlns:xlink="http://www.w3.org/1999/xlink" xlink:type="simple" xlink:actuate="onLoad" height="100%" id="a" xlink:show="other"><feColorMatrix values="0 0 0 0 1 0 0 0 0 1 0 0 0 0 1 0 0 0 1 0" color-interpolation-filters="sRGB"/></filter><mask id="b"><g filter="url(#a)"><path fill-opacity=".369" d="M-37.5 -37.5H412.5V412.5H-37.5z"/></g></mask></defs><g mask="url(#b)"><g><g clip-path="url(#c)"><g clip-path="url(#d)"><g clip-path="url(#e)"><g clip-path="url(#f)"><g clip-path="url(#g)"><g clip-path="url(#h)"><path fill="#ED155D" d="M 91.78125 264.238281 C 91.09375 249.984375 86.414062 236.160156 78.265625 224.453125 C 71.730469 215.09375 65.613281 206.632812 61.015625 200.347656 C 55.25 192.472656 50.636719 183.773438 47.558594 174.519531 C -28.886719 -56.5625 283.710938 32.300781 309.203125 154.644531 C 319.117188 202.335938 293.9375 269.402344 268.253906 323.429688 C 246.796875 368.492188 190.59375 384.171875 148.949219 356.585938 C 143.765625 353.152344 139.046875 349.792969 134.757812 346.558594 C 108.914062 326.949219 93.308594 296.683594 91.78125 264.238281"/></g></g></g></g></g></g></g></g></svg>