<svg xmlns="http://www.w3.org/2000/svg" xmlns:xlink="http://www.w3.org/1999/xlink" width="375" viewBox="0 0 375 375" height="375" version="1.0"><defs><clipPath id="d"><path d="M 0.222656 0.214844 L 285.652344 0.214844 L 285.652344 263.921875 L 0.222656 263.921875 Z M 0.222656 0.214844"/></clipPath><clipPath id="c"><path d="M0 0H293V267H0z"/></clipPath><clipPath id="e"><path d="M 27 269 L 81 269 L 81 326 L 27 326 Z M 27 269"/></clipPath><clipPath id="f"><path d="M 10.785156 283.339844 L 71.136719 259.210938 L 91.777344 310.851562 L 31.429688 334.976562 Z M 10.785156 283.339844"/></clipPath><clipPath id="g"><path d="M 10.785156 283.339844 L 71.136719 259.210938 L 91.777344 310.851562 L 31.429688 334.976562 Z M 10.785156 283.339844"/></clipPath><clipPath id="h"><path d="M 17 294 L 42 294 L 42 331 L 17 331 Z M 17 294"/></clipPath><clipPath id="i"><path d="M 10.785156 283.339844 L 71.136719 259.210938 L 91.777344 310.851562 L 31.429688 334.976562 Z M 10.785156 283.339844"/></clipPath><clipPath id="j"><path d="M 10.785156 283.339844 L 71.136719 259.210938 L 91.777344 310.851562 L 31.429688 334.976562 Z M 10.785156 283.339844"/></clipPath><clipPath id="k"><path d="M 146 122 L 196 122 L 196 172 L 146 172 Z M 146 122"/></clipPath><clipPath id="l"><path d="M 160.84375 114.421875 L 203.484375 136.984375 L 180.921875 179.625 L 138.28125 157.0625 Z M 160.84375 114.421875"/></clipPath><clipPath id="m"><path d="M 160.84375 114.421875 L 203.484375 136.984375 L 180.921875 179.625 L 138.28125 157.0625 Z M 160.84375 114.421875"/></clipPath><clipPath id="n"><path d="M 160 133 L 170 133 L 170 145 L 160 145 Z M 160 133"/></clipPath><clipPath id="o"><path d="M 160.84375 114.421875 L 203.484375 136.984375 L 180.921875 179.625 L 138.28125 157.0625 Z M 160.84375 114.421875"/></clipPath><clipPath id="p"><path d="M 160.84375 114.421875 L 203.484375 136.984375 L 180.921875 179.625 L 138.28125 157.0625 Z M 160.84375 114.421875"/></clipPath><clipPath id="q"><path d="M 175 141 L 186 141 L 186 153 L 175 153 Z M 175 141"/></clipPath><clipPath id="r"><path d="M 160.84375 114.421875 L 203.484375 136.984375 L 180.921875 179.625 L 138.28125 157.0625 Z M 160.84375 114.421875"/></clipPath><clipPath id="s"><path d="M 160.84375 114.421875 L 203.484375 136.984375 L 180.921875 179.625 L 138.28125 157.0625 Z M 160.84375 114.421875"/></clipPath><clipPath id="t"><path d="M 163 148 L 174 148 L 174 157 L 163 157 Z M 163 148"/></clipPath><clipPath id="u"><path d="M 160.84375 114.421875 L 203.484375 136.984375 L 180.921875 179.625 L 138.28125 157.0625 Z M 160.84375 114.421875"/></clipPath><clipPath id="v"><path d="M 160.84375 114.421875 L 203.484375 136.984375 L 180.921875 179.625 L 138.28125 157.0625 Z M 160.84375 114.421875"/></clipPath><clipPath id="w"><path d="M 170.945312 303.96875 L 201.765625 303.96875 L 201.765625 334.789062 L 170.945312 334.789062 Z M 170.945312 303.96875"/></clipPath><clipPath id="x"><path d="M 339 228 L 360 228 L 360 249 L 339 249 Z M 339 228"/></clipPath><clipPath id="y"><path d="M 335.949219 232.03125 L 356.074219 224.628906 L 363.472656 244.75 L 343.351562 252.152344 Z M 335.949219 232.03125"/></clipPath><clipPath id="z"><path d="M 335.949219 232.03125 L 356.074219 224.628906 L 363.472656 244.75 L 343.351562 252.152344 Z M 335.949219 232.03125"/></clipPath><clipPath id="A"><path d="M 328 161 L 368 161 L 368 195 L 328 195 Z M 328 161"/></clipPath><clipPath id="B"><path d="M 319.703125 173.695312 L 352.480469 147.097656 L 375.28125 175.195312 L 342.5 201.792969 Z M 319.703125 173.695312"/></clipPath><clipPath id="C"><path d="M 352.328125 147.222656 L 319.550781 173.820312 L 342.347656 201.917969 L 375.125 175.320312 Z M 352.328125 147.222656"/></clipPath><clipPath id="D"><path d="M 353 156 L 373 156 L 373 178 L 353 178 Z M 353 156"/></clipPath><clipPath id="E"><path d="M 319.703125 173.695312 L 352.480469 147.097656 L 375.28125 175.195312 L 342.5 201.792969 Z M 319.703125 173.695312"/></clipPath><clipPath id="F"><path d="M 352.328125 147.222656 L 319.550781 173.820312 L 342.347656 201.917969 L 375.125 175.320312 Z M 352.328125 147.222656"/></clipPath><clipPath id="G"><path d="M 6 194 L 40 194 L 40 228 L 6 228 Z M 6 194"/></clipPath><clipPath id="H"><path d="M 0 211.453125 L 22.707031 187.742188 L 46.421875 210.449219 L 23.714844 234.160156 Z M 0 211.453125"/></clipPath><clipPath id="I"><path d="M 0 211.453125 L 22.707031 187.742188 L 46.421875 210.449219 L 23.714844 234.160156 Z M 0 211.453125"/></clipPath><clipPath id="J"><path d="M 25 205 L 30 205 L 30 209 L 25 209 Z M 25 205"/></clipPath><clipPath id="K"><path d="M 0 211.453125 L 22.707031 187.742188 L 46.421875 210.449219 L 23.714844 234.160156 Z M 0 211.453125"/></clipPath><clipPath id="L"><path d="M 0 211.453125 L 22.707031 187.742188 L 46.421875 210.449219 L 23.714844 234.160156 Z M 0 211.453125"/></clipPath><clipPath id="M"><path d="M 17 213 L 21 213 L 21 218 L 17 218 Z M 17 213"/></clipPath><clipPath id="N"><path d="M 0 211.453125 L 22.707031 187.742188 L 46.421875 210.449219 L 23.714844 234.160156 Z M 0 211.453125"/></clipPath><clipPath id="O"><path d="M 0 211.453125 L 22.707031 187.742188 L 46.421875 210.449219 L 23.714844 234.160156 Z M 0 211.453125"/></clipPath><clipPath id="P"><path d="M 23 210 L 30 210 L 30 218 L 23 218 Z M 23 210"/></clipPath><clipPath id="Q"><path d="M 0 211.453125 L 22.707031 187.742188 L 46.421875 210.449219 L 23.714844 234.160156 Z M 0 211.453125"/></clipPath><clipPath id="R"><path d="M 0 211.453125 L 22.707031 187.742188 L 46.421875 210.449219 L 23.714844 234.160156 Z M 0 211.453125"/></clipPath><filter x="0%" y="0%" width="100%" xmlns:xlink="http://www.w3.org/1999/xlink" xlink:type="simple" xlink:actuate="onLoad" height="100%" id="a" xlink:show="other"><feColorMatrix values="0 0 0 0 1 0 0 0 0 1 0 0 0 0 1 0 0 0 1 0" color-interpolation-filters="sRGB"/></filter><mask id="b"><g filter="url(#a)"><path fill-opacity=".369" d="M-37.5 -37.5H412.5V412.5H-37.5z"/></g></mask></defs><g mask="url(#b)"><g><g clip-path="url(#c)" transform="translate(69 1)"><g clip-path="url(#d)"><path fill="#2FF3E0" d="M 80.246094 253.703125 C 49.433594 246.042969 24.167969 223.703125 12.816406 194.058594 C -78.636719 -44.390625 361.21875 -72.359375 274.503906 163.527344 C 235.933594 268.335938 169.875 276.019531 80.246094 253.703125"/></g></g></g></g><g clip-path="url(#e)"><g clip-path="url(#f)"><g clip-path="url(#g)"><path fill="#F8D210" d="M 31.730469 295.722656 L 39.191406 292.738281 C 40.3125 292.292969 41.144531 291.308594 41.480469 290.167969 L 43.785156 281.316406 C 44.007812 280.433594 43.933594 279.527344 43.550781 278.746094 L 41.859375 275.238281 C 40.917969 273.238281 41.863281 270.914062 43.914062 270.09375 C 45.53125 269.449219 47.410156 269.996094 48.425781 271.460938 L 56.34375 282.78125 C 57.363281 284.25 59.238281 284.796875 60.855469 284.148438 L 73.976562 278.902344 C 76.402344 277.933594 79.113281 279.300781 79.832031 281.824219 L 80.703125 285.082031 C 81.273438 287.230469 80.152344 289.480469 78.101562 290.300781 L 79.113281 307.265625 C 79.410156 312.335938 76.4375 316.984375 71.773438 318.847656 L 57.96875 324.367188 C 55.105469 325.511719 51.859375 325.511719 48.988281 324.28125 C 46.117188 323.050781 42.933594 323.027344 40.011719 324.195312 L 38.644531 324.742188 L 27.664062 297.277344 Z M 31.730469 295.722656"/></g></g></g><g clip-path="url(#h)"><g clip-path="url(#i)"><g clip-path="url(#j)"><path fill="#ED155D" d="M 40.507812 326.160156 L 30.683594 330.085938 C 30.121094 330.308594 29.511719 330.050781 29.289062 329.488281 L 17.464844 299.910156 C 17.242188 299.351562 17.503906 298.742188 18.0625 298.519531 L 27.886719 294.589844 C 28.445312 294.367188 29.054688 294.628906 29.28125 295.1875 L 41.105469 324.765625 C 41.328125 325.324219 41.066406 325.933594 40.507812 326.160156 Z M 40.507812 326.160156"/></g></g></g><g clip-path="url(#k)"><g clip-path="url(#l)"><g clip-path="url(#m)"><path fill="#F8D210" d="M 192.203125 158.304688 C 191.832031 159.003906 191.429688 159.679688 190.996094 160.339844 C 190.558594 161 190.089844 161.632812 189.59375 162.246094 C 189.09375 162.859375 188.566406 163.445312 188.011719 164.007812 C 187.453125 164.570312 186.871094 165.101562 186.261719 165.605469 C 185.652344 166.109375 185.023438 166.582031 184.367188 167.023438 C 183.710938 167.464844 183.039062 167.875 182.34375 168.25 C 181.648438 168.625 180.933594 168.964844 180.207031 169.269531 C 179.476562 169.574219 178.734375 169.84375 177.980469 170.078125 C 177.226562 170.308594 176.460938 170.503906 175.6875 170.660156 C 174.914062 170.820312 174.132812 170.9375 173.347656 171.019531 C 172.5625 171.097656 171.773438 171.140625 170.984375 171.144531 C 170.195312 171.148438 169.40625 171.113281 168.617188 171.039062 C 167.832031 170.964844 167.050781 170.851562 166.277344 170.699219 C 165.5 170.550781 164.734375 170.363281 163.976562 170.136719 C 163.21875 169.910156 162.476562 169.644531 161.746094 169.347656 C 161.015625 169.046875 160.300781 168.714844 159.601562 168.34375 C 158.902344 167.976562 158.222656 167.570312 157.566406 167.136719 C 156.90625 166.699219 156.269531 166.230469 155.660156 165.734375 C 155.046875 165.234375 154.457031 164.707031 153.898438 164.152344 C 153.335938 163.59375 152.804688 163.011719 152.300781 162.402344 C 151.796875 161.796875 151.324219 161.164062 150.882812 160.507812 C 150.441406 159.855469 150.03125 159.179688 149.65625 158.484375 C 149.28125 157.789062 148.941406 157.078125 148.636719 156.347656 C 148.332031 155.621094 148.0625 154.878906 147.828125 154.121094 C 147.597656 153.367188 147.402344 152.601562 147.246094 151.828125 C 147.085938 151.054688 146.96875 150.273438 146.886719 149.488281 C 146.808594 148.703125 146.765625 147.914062 146.761719 147.125 C 146.757812 146.335938 146.792969 145.546875 146.867188 144.761719 C 146.941406 143.972656 147.054688 143.191406 147.203125 142.417969 C 147.355469 141.640625 147.542969 140.875 147.769531 140.117188 C 147.996094 139.363281 148.257812 138.617188 148.558594 137.886719 C 148.859375 137.15625 149.191406 136.441406 149.5625 135.742188 C 149.929688 135.042969 150.332031 134.367188 150.769531 133.707031 C 151.207031 133.046875 151.671875 132.414062 152.171875 131.800781 C 152.671875 131.1875 153.199219 130.601562 153.753906 130.039062 C 154.3125 129.476562 154.894531 128.945312 155.5 128.441406 C 156.109375 127.9375 156.742188 127.464844 157.398438 127.023438 C 158.050781 126.582031 158.726562 126.175781 159.421875 125.800781 C 160.117188 125.421875 160.828125 125.082031 161.558594 124.777344 C 162.285156 124.472656 163.027344 124.203125 163.78125 123.972656 C 164.539062 123.738281 165.304688 123.542969 166.078125 123.386719 C 166.851562 123.230469 167.632812 123.109375 168.417969 123.027344 C 169.203125 122.949219 169.992188 122.90625 170.78125 122.902344 C 171.570312 122.898438 172.359375 122.933594 173.144531 123.007812 C 173.933594 123.082031 174.714844 123.195312 175.488281 123.347656 C 176.265625 123.496094 177.03125 123.6875 177.785156 123.910156 C 178.542969 124.136719 179.289062 124.402344 180.019531 124.699219 C 180.75 125 181.464844 125.332031 182.164062 125.703125 C 182.863281 126.074219 183.539062 126.476562 184.199219 126.910156 C 184.855469 127.347656 185.492188 127.816406 186.105469 128.3125 C 186.71875 128.8125 187.304688 129.339844 187.867188 129.894531 C 188.425781 130.453125 188.960938 131.035156 189.464844 131.644531 C 189.96875 132.25 190.441406 132.882812 190.882812 133.539062 C 191.324219 134.195312 191.730469 134.867188 192.105469 135.5625 C 192.480469 136.257812 192.824219 136.972656 193.128906 137.699219 C 193.433594 138.429688 193.703125 139.167969 193.933594 139.925781 C 194.167969 140.679688 194.363281 141.445312 194.519531 142.21875 C 194.675781 142.992188 194.796875 143.773438 194.875 144.558594 C 194.957031 145.34375 195 146.132812 195.003906 146.921875 C 195.007812 147.710938 194.972656 148.5 194.898438 149.285156 C 194.824219 150.074219 194.710938 150.855469 194.558594 151.628906 C 194.410156 152.40625 194.21875 153.171875 193.992188 153.929688 C 193.765625 154.683594 193.503906 155.429688 193.207031 156.160156 C 192.90625 156.890625 192.570312 157.605469 192.203125 158.304688 Z M 192.203125 158.304688"/></g></g></g><g clip-path="url(#n)"><g clip-path="url(#o)"><g clip-path="url(#p)"><path fill="#001F4A" d="M 164.855469 144.851562 L 160.792969 142.703125 C 160.484375 142.539062 160.382812 142.203125 160.546875 141.894531 L 164.75 133.949219 C 164.914062 133.640625 165.25 133.535156 165.558594 133.699219 L 169.621094 135.847656 C 169.929688 136.011719 170.035156 136.347656 169.871094 136.65625 L 165.664062 144.601562 C 165.457031 144.886719 165.121094 144.992188 164.855469 144.851562 Z M 164.855469 144.851562"/></g></g></g><g clip-path="url(#q)"><g clip-path="url(#r)"><g clip-path="url(#s)"><path fill="#001F4A" d="M 180.128906 152.933594 L 176.066406 150.785156 C 175.757812 150.621094 175.65625 150.285156 175.816406 149.972656 L 180.023438 142.027344 C 180.1875 141.71875 180.523438 141.617188 180.832031 141.78125 L 184.894531 143.929688 C 185.203125 144.089844 185.304688 144.429688 185.144531 144.738281 L 180.9375 152.683594 C 180.773438 152.992188 180.394531 153.074219 180.128906 152.933594 Z M 180.128906 152.933594"/></g></g></g><g clip-path="url(#t)"><g clip-path="url(#u)"><g clip-path="url(#v)"><path fill="#FFF" d="M 166.09375 156.074219 C 163.445312 154.671875 162.425781 151.363281 163.828125 148.714844 C 164.085938 148.230469 164.691406 148.042969 165.179688 148.300781 C 165.664062 148.558594 165.851562 149.164062 165.59375 149.648438 C 164.707031 151.328125 165.351562 153.417969 167.027344 154.308594 C 168.707031 155.195312 170.796875 154.550781 171.6875 152.871094 C 171.941406 152.386719 172.550781 152.199219 173.035156 152.457031 C 173.519531 152.714844 173.707031 153.320312 173.453125 153.808594 C 172.050781 156.457031 168.742188 157.472656 166.09375 156.074219 Z M 166.09375 156.074219"/></g></g></g><g clip-path="url(#w)"><path fill="#ED155D" d="M 199.4375 317.050781 L 191.9375 317.050781 L 197.234375 311.753906 C 198.128906 310.859375 198.128906 309.394531 197.234375 308.46875 C 196.339844 307.574219 194.875 307.574219 193.949219 308.46875 L 188.652344 313.796875 L 188.652344 306.296875 C 188.652344 305.023438 187.597656 303.96875 186.324219 303.96875 C 185.046875 303.96875 183.992188 305.023438 183.992188 306.296875 L 183.992188 313.796875 L 178.730469 308.46875 C 177.835938 307.574219 176.367188 307.574219 175.441406 308.46875 C 174.550781 309.359375 174.550781 310.828125 175.441406 311.753906 L 180.769531 317.050781 L 173.273438 317.050781 C 171.996094 317.050781 170.945312 318.101562 170.945312 319.378906 C 170.945312 320.65625 171.996094 321.707031 173.273438 321.707031 L 180.769531 321.707031 L 175.441406 327.003906 C 174.550781 327.898438 174.550781 329.367188 175.441406 330.292969 C 176.335938 331.183594 177.804688 331.183594 178.730469 330.292969 L 184.027344 324.964844 L 184.027344 332.460938 C 184.027344 333.738281 185.078125 334.789062 186.355469 334.789062 C 187.632812 334.789062 188.683594 333.738281 188.683594 332.460938 L 188.683594 324.964844 L 193.980469 330.257812 C 194.875 331.152344 196.339844 331.152344 197.265625 330.257812 C 198.160156 329.367188 198.160156 327.898438 197.265625 326.972656 L 191.9375 321.675781 L 199.4375 321.675781 C 200.710938 321.675781 201.765625 320.625 201.765625 319.347656 C 201.765625 318.101562 200.710938 317.050781 199.4375 317.050781 Z M 199.4375 317.050781"/></g><g clip-path="url(#x)"><g clip-path="url(#y)"><g clip-path="url(#z)"><path fill="#2FF3E0" d="M 359.773438 234.691406 C 360.554688 236.8125 355.765625 238.882812 354.890625 240.777344 C 354.003906 242.695312 355.542969 247.65625 353.417969 248.4375 C 351.296875 249.21875 349.230469 244.449219 347.320312 243.582031 C 345.421875 242.6875 340.4375 244.234375 339.652344 242.09375 C 338.863281 239.949219 343.660156 237.898438 344.535156 236.003906 C 345.40625 234.113281 343.882812 229.125 346.003906 228.34375 C 348.128906 227.5625 350.199219 232.351562 352.089844 233.226562 C 354.011719 234.113281 358.992188 232.566406 359.773438 234.691406 Z M 359.773438 234.691406"/></g></g></g><g clip-path="url(#A)"><g clip-path="url(#B)"><g clip-path="url(#C)"><path fill="#F8D210" d="M 352.738281 163.039062 L 348.6875 166.328125 C 348.078125 166.820312 347.257812 166.980469 346.5 166.808594 L 340.746094 165.3125 C 340.175781 165.15625 339.683594 164.828125 339.359375 164.359375 L 337.90625 162.289062 C 337.066406 161.121094 335.449219 160.917969 334.335938 161.824219 C 333.457031 162.535156 333.171875 163.777344 333.683594 164.820312 L 337.609375 172.902344 C 338.121094 173.945312 337.839844 175.183594 336.960938 175.898438 L 329.835938 181.679688 C 328.515625 182.75 328.4375 184.71875 329.640625 185.929688 L 331.214844 187.457031 C 332.257812 188.460938 333.886719 188.539062 335.003906 187.636719 L 344.316406 193.589844 C 347.101562 195.367188 350.679688 195.152344 353.214844 193.097656 L 360.710938 187.015625 C 362.265625 185.753906 363.292969 183.914062 363.5 181.890625 C 363.710938 179.871094 364.703125 178.058594 366.289062 176.769531 L 367.03125 176.167969 L 354.90625 161.222656 Z M 352.738281 163.039062"/></g></g></g><g clip-path="url(#D)"><g clip-path="url(#E)"><g clip-path="url(#F)"><path fill="#256ECE" d="M 367.246094 177.675781 L 372.582031 173.34375 C 372.886719 173.097656 372.933594 172.667969 372.683594 172.367188 L 359.625 156.273438 C 359.378906 155.96875 358.949219 155.921875 358.648438 156.167969 L 353.3125 160.5 C 353.007812 160.746094 352.960938 161.175781 353.210938 161.480469 L 366.269531 177.570312 C 366.515625 177.875 366.941406 177.921875 367.246094 177.675781 Z M 367.246094 177.675781"/></g></g></g><g clip-path="url(#G)"><g clip-path="url(#H)"><g clip-path="url(#I)"><path fill="#F8D210" d="M 34.566406 199.09375 C 34.953125 199.464844 35.320312 199.855469 35.671875 200.265625 C 36.023438 200.671875 36.351562 201.097656 36.660156 201.535156 C 36.96875 201.976562 37.253906 202.433594 37.519531 202.902344 C 37.78125 203.367188 38.019531 203.847656 38.238281 204.339844 C 38.453125 204.832031 38.644531 205.335938 38.8125 205.847656 C 38.980469 206.355469 39.121094 206.875 39.238281 207.398438 C 39.355469 207.925781 39.445312 208.453125 39.507812 208.988281 C 39.574219 209.523438 39.613281 210.058594 39.625 210.59375 C 39.636719 211.132812 39.621094 211.667969 39.578125 212.207031 C 39.539062 212.742188 39.472656 213.273438 39.378906 213.804688 C 39.285156 214.332031 39.164062 214.855469 39.019531 215.375 C 38.875 215.890625 38.707031 216.402344 38.511719 216.902344 C 38.316406 217.402344 38.097656 217.894531 37.851562 218.375 C 37.609375 218.851562 37.34375 219.320312 37.054688 219.773438 C 36.765625 220.226562 36.457031 220.664062 36.125 221.085938 C 35.792969 221.511719 35.441406 221.914062 35.066406 222.304688 C 34.695312 222.691406 34.304688 223.0625 33.898438 223.410156 C 33.488281 223.761719 33.066406 224.089844 32.625 224.398438 C 32.183594 224.707031 31.730469 224.992188 31.261719 225.257812 C 30.792969 225.519531 30.3125 225.761719 29.820312 225.976562 C 29.328125 226.195312 28.828125 226.386719 28.316406 226.554688 C 27.804688 226.71875 27.289062 226.863281 26.761719 226.976562 C 26.238281 227.09375 25.707031 227.183594 25.175781 227.25 C 24.640625 227.3125 24.105469 227.351562 23.566406 227.363281 C 23.03125 227.375 22.492188 227.359375 21.957031 227.320312 C 21.421875 227.277344 20.886719 227.210938 20.359375 227.117188 C 19.828125 227.023438 19.304688 226.902344 18.789062 226.757812 C 18.269531 226.613281 17.761719 226.445312 17.261719 226.25 C 16.757812 226.054688 16.269531 225.835938 15.789062 225.59375 C 15.308594 225.347656 14.84375 225.082031 14.390625 224.792969 C 13.9375 224.503906 13.496094 224.195312 13.074219 223.863281 C 12.652344 223.53125 12.246094 223.179688 11.859375 222.808594 C 11.46875 222.4375 11.101562 222.046875 10.75 221.636719 C 10.402344 221.230469 10.070312 220.804688 9.761719 220.363281 C 9.453125 219.925781 9.167969 219.46875 8.90625 219 C 8.640625 218.53125 8.402344 218.050781 8.183594 217.558594 C 7.96875 217.066406 7.777344 216.566406 7.609375 216.054688 C 7.441406 215.542969 7.300781 215.027344 7.183594 214.5 C 7.066406 213.976562 6.976562 213.449219 6.914062 212.914062 C 6.847656 212.378906 6.8125 211.84375 6.800781 211.308594 C 6.789062 210.769531 6.804688 210.234375 6.84375 209.695312 C 6.886719 209.160156 6.953125 208.628906 7.046875 208.097656 C 7.140625 207.570312 7.257812 207.046875 7.402344 206.527344 C 7.546875 206.007812 7.71875 205.5 7.914062 205 C 8.109375 204.5 8.328125 204.007812 8.570312 203.527344 C 8.8125 203.050781 9.078125 202.582031 9.367188 202.128906 C 9.65625 201.675781 9.96875 201.238281 10.300781 200.816406 C 10.632812 200.390625 10.984375 199.984375 11.355469 199.597656 C 11.726562 199.210938 12.117188 198.839844 12.523438 198.492188 C 12.933594 198.140625 13.355469 197.8125 13.796875 197.503906 C 14.238281 197.195312 14.691406 196.910156 15.160156 196.644531 C 15.628906 196.382812 16.109375 196.140625 16.601562 195.925781 C 17.09375 195.707031 17.597656 195.515625 18.105469 195.347656 C 18.617188 195.183594 19.136719 195.039062 19.660156 194.925781 C 20.1875 194.808594 20.714844 194.71875 21.25 194.652344 C 21.78125 194.589844 22.316406 194.550781 22.855469 194.539062 C 23.394531 194.527344 23.929688 194.542969 24.464844 194.582031 C 25.003906 194.625 25.535156 194.691406 26.0625 194.785156 C 26.59375 194.878906 27.117188 194.996094 27.636719 195.140625 C 28.152344 195.289062 28.664062 195.457031 29.164062 195.652344 C 29.664062 195.847656 30.15625 196.066406 30.632812 196.308594 C 31.113281 196.550781 31.582031 196.820312 32.035156 197.105469 C 32.488281 197.394531 32.925781 197.707031 33.347656 198.039062 C 33.769531 198.371094 34.175781 198.722656 34.566406 199.09375 Z M 34.566406 199.09375"/></g></g></g><g clip-path="url(#J)"><g clip-path="url(#K)"><g clip-path="url(#L)"><path fill="#001F4A" d="M 26.355469 208.550781 C 25.570312 207.800781 25.542969 206.550781 26.296875 205.765625 C 27.046875 204.976562 28.296875 204.953125 29.082031 205.703125"/></g></g></g><g clip-path="url(#M)"><g clip-path="url(#N)"><g clip-path="url(#O)"><path fill="#001F4A" d="M 18.222656 217.042969 C 17.4375 216.292969 17.410156 215.042969 18.164062 214.257812 C 18.914062 213.472656 20.164062 213.445312 20.949219 214.195312"/></g></g></g><g clip-path="url(#P)"><g clip-path="url(#Q)"><g clip-path="url(#R)"><path fill="#FFF" d="M 29.152344 216.640625 C 28.09375 217.742188 26.316406 217.78125 25.210938 216.726562 L 24.230469 215.785156 C 23.125 214.726562 23.085938 212.949219 24.144531 211.84375 C 25.203125 210.738281 26.980469 210.699219 28.085938 211.757812 L 29.066406 212.699219 C 30.148438 213.78125 30.210938 215.535156 29.152344 216.640625 Z M 25.175781 212.832031 C 24.632812 213.394531 24.652344 214.261719 25.21875 214.800781 L 26.199219 215.742188 C 26.765625 216.28125 27.628906 216.265625 28.171875 215.699219 C 28.710938 215.132812 28.691406 214.269531 28.128906 213.730469 L 27.144531 212.789062 C 26.582031 212.246094 25.691406 212.292969 25.175781 212.832031 Z M 25.175781 212.832031"/></g></g></g></svg>