<svg xmlns="http://www.w3.org/2000/svg" width="375" viewBox="0 0 375 375" height="375" version="1.0"><path fill="#F2F2F2" d="M 334.359375 311.417969 L 40.601562 311.417969 C 29.125 311.417969 19.515625 302.34375 19.515625 290.621094 L 19.515625 87.496094 C 19.519531 86.804688 19.554688 86.117188 19.621094 85.429688 C 19.691406 84.746094 19.792969 84.0625 19.929688 83.386719 C 20.066406 82.710938 20.234375 82.042969 20.433594 81.382812 C 20.636719 80.726562 20.867188 80.078125 21.132812 79.441406 C 21.398438 78.804688 21.695312 78.179688 22.019531 77.574219 C 22.347656 76.964844 22.699219 76.375 23.085938 75.800781 C 23.46875 75.230469 23.878906 74.675781 24.316406 74.144531 C 24.753906 73.613281 25.21875 73.101562 25.707031 72.613281 C 26.195312 72.128906 26.703125 71.664062 27.238281 71.226562 C 27.773438 70.789062 28.324219 70.378906 28.898438 69.996094 C 29.472656 69.613281 30.0625 69.261719 30.671875 68.933594 C 31.28125 68.609375 31.902344 68.316406 32.539062 68.050781 C 33.179688 67.789062 33.828125 67.554688 34.488281 67.355469 C 35.148438 67.15625 35.816406 66.988281 36.492188 66.851562 C 37.167969 66.71875 37.851562 66.617188 38.535156 66.546875 C 39.222656 66.480469 39.910156 66.445312 40.601562 66.445312 L 334.359375 66.445312 C 345.835938 66.445312 355.445312 75.886719 355.445312 87.515625 L 355.445312 290.359375 C 355.183594 302.363281 345.835938 311.429688 334.359375 311.429688 Z M 334.359375 311.417969"/><path fill="#221F1F" d="M 61.515625 311.417969 L 187.199219 219.496094 L 187.996094 214.164062 L 58.367188 121.09375 L 58.105469 306.886719 Z M 61.515625 311.417969" fill-opacity=".098"/><path fill="#D44C3D" d="M 40.601562 311.417969 C 28.96875 311.417969 19.515625 302.34375 19.515625 290.621094 L 19.515625 87.222656 C 19.515625 75.488281 28.96875 73.371094 40.601562 73.371094 C 52.234375 73.371094 61.683594 75.785156 61.683594 87.222656 L 61.683594 311.410156 Z M 40.601562 311.417969"/><path fill="#D44C3D" d="M 40.601562 76.558594 C 55.542969 76.558594 58.480469 81.09375 58.480469 87.222656 L 58.480469 308.46875 L 40.601562 308.46875 C 30.730469 308.46875 22.71875 300.472656 22.71875 290.601562 L 22.71875 87.222656 C 22.457031 80.925781 25.660156 76.558594 40.601562 76.558594 Z M 40.601562 73.621094 C 28.96875 73.632812 19.515625 76.023438 19.515625 87.222656 L 19.515625 290.335938 C 19.507812 291.03125 19.53125 291.722656 19.589844 292.410156 C 19.652344 293.101562 19.746094 293.789062 19.871094 294.46875 C 20 295.148438 20.164062 295.824219 20.359375 296.488281 C 20.554688 297.152344 20.78125 297.804688 21.042969 298.449219 C 21.300781 299.089844 21.59375 299.71875 21.917969 300.328125 C 22.242188 300.941406 22.59375 301.539062 22.976562 302.113281 C 23.359375 302.691406 23.773438 303.25 24.210938 303.785156 C 24.648438 304.324219 25.113281 304.835938 25.605469 305.324219 C 26.09375 305.816406 26.609375 306.28125 27.144531 306.71875 C 27.679688 307.15625 28.238281 307.566406 28.816406 307.949219 C 29.394531 308.332031 29.988281 308.6875 30.601562 309.007812 C 31.214844 309.332031 31.84375 309.625 32.484375 309.886719 C 33.128906 310.144531 33.78125 310.375 34.445312 310.570312 C 35.113281 310.765625 35.785156 310.925781 36.46875 311.054688 C 37.148438 311.183594 37.835938 311.273438 38.523438 311.335938 C 39.214844 311.394531 39.90625 311.417969 40.601562 311.410156 L 61.683594 311.410156 L 61.683594 87.222656 C 61.515625 75.761719 52.339844 73.632812 40.601562 73.632812 Z M 334.359375 76.558594 C 347.96875 76.558594 352.242188 79.226562 352.242188 86.695312 L 352.242188 290.882812 C 352.242188 300.746094 344.242188 308.753906 334.359375 308.753906 L 316.480469 308.753906 L 316.480469 86.695312 C 316.21875 78.964844 320.753906 76.558594 334.359375 76.558594 Z M 334.359375 73.621094 C 322.621094 73.621094 313.277344 75.214844 313.277344 86.6875 L 313.277344 311.671875 L 334.359375 311.671875 C 346.101562 311.671875 355.445312 302.226562 355.445312 290.601562 L 355.445312 86.425781 C 355.183594 74.953125 345.835938 73.621094 334.359375 73.621094 Z M 334.359375 73.621094"/><path fill="#D44C3D" d="M 334.359375 311.417969 L 313.277344 311.417969 L 313.277344 86.695312 C 313.277344 74.964844 322.726562 73.632812 334.359375 73.632812 C 345.996094 73.632812 355.445312 75.226562 355.445312 86.695312 L 355.445312 290.882812 C 355.429688 291.5625 355.382812 292.238281 355.300781 292.914062 C 355.222656 293.589844 355.109375 294.257812 354.964844 294.921875 C 354.816406 295.585938 354.640625 296.242188 354.429688 296.890625 C 354.222656 297.535156 353.980469 298.171875 353.710938 298.796875 C 353.4375 299.417969 353.136719 300.027344 352.808594 300.621094 C 352.476562 301.214844 352.121094 301.792969 351.734375 302.351562 C 351.347656 302.914062 350.933594 303.453125 350.496094 303.972656 C 350.058594 304.492188 349.59375 304.988281 349.105469 305.460938 C 348.621094 305.9375 348.109375 306.386719 347.578125 306.8125 C 347.050781 307.234375 346.5 307.632812 345.929688 308.007812 C 345.359375 308.378906 344.773438 308.722656 344.171875 309.035156 C 343.566406 309.351562 342.949219 309.636719 342.320312 309.890625 C 341.691406 310.144531 341.046875 310.367188 340.394531 310.5625 C 339.742188 310.753906 339.082031 310.914062 338.414062 311.042969 C 337.746094 311.171875 337.074219 311.265625 336.398438 311.328125 C 335.71875 311.390625 335.042969 311.421875 334.359375 311.417969 Z M 334.359375 311.417969"/><path fill="#221F1F" d="M 244.441406 311.417969 L 21.386719 96.140625 L 33.125 100.9375 L 188.519531 212.664062 L 355.433594 90.160156 L 355.433594 290.882812 C 355.429688 291.570312 355.394531 292.253906 355.324219 292.9375 C 355.253906 293.617188 355.152344 294.296875 355.015625 294.96875 C 354.875 295.640625 354.707031 296.304688 354.503906 296.960938 C 354.300781 297.617188 354.066406 298.261719 353.800781 298.890625 C 353.535156 299.523438 353.238281 300.144531 352.910156 300.746094 C 352.585938 301.347656 352.230469 301.933594 351.84375 302.503906 C 351.460938 303.070312 351.046875 303.621094 350.609375 304.148438 C 350.171875 304.675781 349.707031 305.179688 349.21875 305.660156 C 348.730469 306.144531 348.21875 306.601562 347.683594 307.03125 C 347.152344 307.464844 346.597656 307.867188 346.023438 308.246094 C 345.449219 308.621094 344.859375 308.972656 344.25 309.289062 C 343.644531 309.609375 343.023438 309.898438 342.386719 310.15625 C 341.75 310.414062 341.101562 310.636719 340.441406 310.832031 C 339.785156 311.027344 339.117188 311.1875 338.445312 311.316406 C 337.769531 311.441406 337.089844 311.539062 336.40625 311.597656 C 335.722656 311.660156 335.039062 311.6875 334.351562 311.679688 Z M 244.441406 311.417969" fill-opacity=".078"/><path fill="#D44C3D" d="M 187.09375 219.757812 L 28.589844 104.828125 C 19.140625 97.902344 16.578125 84.578125 23.519531 75.238281 C 30.457031 65.898438 43.78125 63.769531 53.398438 70.703125 L 187.34375 168.035156 L 322.085938 69.382812 C 331.535156 62.457031 344.503906 64.585938 351.433594 74.179688 C 358.363281 83.621094 356.230469 96.582031 346.636719 103.507812 Z M 187.09375 219.757812"/><path fill="#D44C3D" d="M 334.359375 68.5625 C 339.96875 68.5625 345.566406 71.230469 349.039062 76.035156 C 354.648438 84.03125 353.03125 95.238281 345.050781 101.21875 L 187.09375 216.03125 L 30.457031 102.4375 C 22.457031 96.5625 20.316406 85.089844 25.816406 77.253906 C 29.019531 72.457031 34.636719 69.519531 40.757812 69.519531 C 44.75 69.519531 48.496094 70.589844 51.425781 72.980469 L 185.085938 170.046875 L 186.957031 171.117188 L 188.824219 170.046875 L 323.429688 71.480469 C 326.894531 69.613281 330.359375 68.542969 334.371094 68.542969 Z M 334.359375 65.363281 C 330.089844 65.363281 325.542969 66.433594 322.078125 69.351562 L 187.34375 168.023438 L 53.136719 70.429688 C 49.671875 67.765625 45.136719 66.445312 40.601562 66.445312 C 33.933594 66.707031 27.265625 69.644531 23.253906 75.257812 C 16.589844 84.703125 19.265625 97.664062 28.589844 104.589844 L 187.09375 219.757812 L 346.636719 103.488281 C 347.191406 103.082031 347.722656 102.648438 348.234375 102.191406 C 348.75 101.734375 349.238281 101.253906 349.703125 100.75 C 350.167969 100.242188 350.609375 99.71875 351.023438 99.171875 C 351.4375 98.621094 351.824219 98.054688 352.183594 97.472656 C 352.542969 96.886719 352.875 96.285156 353.175781 95.667969 C 353.476562 95.050781 353.746094 94.417969 353.984375 93.777344 C 354.226562 93.132812 354.433594 92.480469 354.609375 91.816406 C 354.785156 91.152344 354.929688 90.480469 355.039062 89.804688 C 355.148438 89.125 355.226562 88.445312 355.273438 87.757812 C 355.316406 87.074219 355.328125 86.386719 355.304688 85.703125 C 355.285156 85.015625 355.230469 84.332031 355.140625 83.652344 C 355.050781 82.96875 354.929688 82.292969 354.777344 81.625 C 354.621094 80.957031 354.433594 80.296875 354.21875 79.644531 C 354 78.996094 353.75 78.355469 353.46875 77.726562 C 353.1875 77.101562 352.878906 76.488281 352.539062 75.894531 C 352.199219 75.296875 351.828125 74.71875 351.433594 74.15625 C 347.160156 68.554688 340.765625 65.34375 334.359375 65.34375 Z M 334.359375 65.363281"/></svg>