<svg xmlns="http://www.w3.org/2000/svg" xmlns:xlink="http://www.w3.org/1999/xlink" width="375" viewBox="0 0 375 375" height="375" version="1.0"><defs><clipPath id="d"><path d="M 1 1 L 365.238281 1 L 365.238281 323.160156 L 1 323.160156 Z M 1 1"/></clipPath><clipPath id="c"><path d="M0 0H366V324H0z"/></clipPath><filter x="0%" y="0%" width="100%" xmlns:xlink="http://www.w3.org/1999/xlink" xlink:type="simple" xlink:actuate="onLoad" height="100%" id="a" xlink:show="other"><feColorMatrix values="0 0 0 0 1 0 0 0 0 1 0 0 0 0 1 0 0 0 1 0" color-interpolation-filters="sRGB"/></filter><mask id="b"><g filter="url(#a)"><path fill-opacity=".369" d="M-37.5 -37.5H412.5V412.5H-37.5z"/></g></mask></defs><g mask="url(#b)"><g><g clip-path="url(#c)" transform="translate(7 39)"><g clip-path="url(#d)"><path fill="#2FF3E0" d="M 272.824219 252.003906 C 329.726562 242.308594 360.675781 203.851562 364.707031 164.367188 C 367.96875 132.386719 353.574219 99.734375 321.007812 81.144531 C 307.65625 73.523438 292.542969 69.9375 276.609375 66.78125 C 224.5625 56.460938 227.449219 59.253906 189.828125 25.089844 C 131.894531 -27.511719 26.988281 12.269531 5.726562 86.003906 C -6.957031 129.984375 4.617188 184.808594 73.714844 227.621094 C 116.941406 254.398438 100.648438 317.628906 160.324219 322.808594 C 176.796875 324.238281 194.132812 319.589844 205.730469 308.273438 C 224.648438 289.820312 230.03125 259.296875 272.824219 252.003906" fill-rule="evenodd"/></g></g></g></g></svg>