<svg xmlns="http://www.w3.org/2000/svg" width="375" viewBox="0 0 375 375" height="375" version="1.0"><defs><clipPath id="a"><path d="M 22.292969 72 L 369.253906 72 L 369.253906 313.160156 L 22.292969 313.160156 Z M 22.292969 72"/></clipPath></defs><path fill="#FFF" d="M 119.367188 81.742188 C 121.597656 77.320312 126.160156 74.296875 131.464844 74.296875 L 235.828125 74.296875 C 243.3125 74.296875 249.410156 80.398438 249.410156 87.894531 L 249.410156 115.347656 C 264.136719 110.679688 278.960938 107.15625 300.328125 112.765625 C 309.152344 115.097656 330.621094 120.707031 345.496094 139.421875 C 369.738281 169.949219 362.597656 217.703125 344.304688 247.140625 C 315.597656 293.402344 258.582031 300.253906 232.554688 303.378906 C 177.722656 309.980469 132.753906 292.011719 105.4375 276.574219 L 103.304688 276.128906 L 66.070312 276.128906 L 66.070312 273.25 L 63.9375 268.929688 L 80.050781 259.746094 C 79.058594 258.953125 78.316406 258.359375 77.722656 257.910156 C 57.644531 241.429688 5.238281 198.441406 11.980469 141.804688 C 15.796875 109.984375 39.894531 72.160156 72.367188 65.804688 C 90.957031 62.183594 105.089844 70.371094 119.367188 81.742188"/><path fill="#F8D210" d="M 147.429688 212.292969 C 144.800781 212.292969 142.667969 214.425781 142.667969 217.058594 C 142.667969 219.6875 144.800781 221.824219 147.429688 221.824219 C 150.054688 221.824219 152.1875 219.6875 152.1875 217.058594 C 152.1875 214.425781 150.054688 212.292969 147.429688 212.292969 Z M 134.191406 95.492188 C 131.5625 95.492188 129.433594 97.625 129.433594 100.253906 C 129.433594 102.886719 131.5625 105.019531 134.191406 105.019531 C 136.820312 105.019531 138.949219 102.886719 138.949219 100.253906 C 138.949219 97.625 136.820312 95.492188 134.191406 95.492188 Z M 134.09375 247.832031 C 131.464844 247.832031 129.332031 249.96875 129.332031 252.597656 C 129.332031 255.230469 131.464844 257.363281 134.09375 257.363281 C 136.71875 257.363281 138.851562 255.230469 138.851562 252.597656 C 138.851562 249.96875 136.71875 247.832031 134.09375 247.832031 Z M 134.09375 212.292969 C 131.464844 212.292969 129.332031 214.425781 129.332031 217.058594 C 129.332031 219.6875 131.464844 221.824219 134.09375 221.824219 C 136.71875 221.824219 138.851562 219.6875 138.851562 217.058594 C 138.851562 214.425781 136.71875 212.292969 134.09375 212.292969 Z M 218.175781 145.128906 L 216.390625 146.023438 C 215.25 146.621094 213.863281 146.171875 213.316406 145.03125 L 207.714844 134.210938 C 207.023438 134.507812 206.328125 134.855469 205.683594 135.152344 C 204.195312 133.316406 201.867188 129.890625 200.578125 125.027344 C 199.585938 121.203125 199.683594 117.878906 199.882812 115.695312 C 201.816406 114.898438 203.75 114.152344 205.734375 113.3125 C 209.847656 111.625 211.535156 110.828125 212.476562 111.625 C 212.773438 111.871094 212.921875 112.167969 212.972656 112.367188 C 212.476562 112.566406 211.980469 112.765625 211.484375 112.914062 C 211.433594 114.601562 211.535156 116.6875 212.027344 118.96875 C 212.972656 123.734375 215.003906 127.257812 216.539062 129.394531 C 216.589844 129.394531 216.886719 129.59375 216.9375 129.941406 C 216.988281 130.289062 216.738281 130.636719 216.390625 130.734375 C 215.550781 130.984375 214.707031 131.28125 213.863281 131.578125 C 215.648438 135.003906 217.433594 138.429688 219.21875 141.855469 C 219.714844 143.144531 219.316406 144.535156 218.175781 145.128906 Z M 299.289062 207.179688 C 298 209.066406 295.816406 211.746094 292.246094 214.375 L 289.867188 212.292969 C 289.71875 212.191406 289.621094 212.09375 289.46875 211.945312 L 289.867188 211.398438 L 294.230469 204.847656 L 288.132812 200.03125 L 288.726562 202.066406 L 268.945312 202.066406 L 268.945312 211.796875 L 268.648438 211.945312 C 268.203125 211.996094 265.773438 212.339844 263.542969 210.703125 C 263.34375 210.554688 261.261719 208.964844 260.914062 206.285156 C 260.765625 205.042969 260.914062 203.308594 264.433594 198.542969 C 265.921875 196.507812 268.101562 193.828125 271.125 190.945312 C 272.910156 190.550781 274.695312 190.152344 276.480469 189.804688 C 276.828125 190.996094 277.917969 191.839844 279.109375 191.789062 C 280.25 191.742188 281.289062 190.945312 281.585938 189.804688 L 287.289062 190.449219 C 291.554688 193.828125 294.925781 196.40625 297.949219 198.640625 C 298.988281 199.433594 300.625 200.625 300.921875 202.511719 C 301.171875 203.753906 300.773438 204.996094 299.289062 207.179688"/><path fill="#F8D210" d="M 91.652344 102.488281 L 72.960938 102.488281 C 70.53125 102.488281 68.5 104.472656 68.5 106.957031 L 68.5 119.714844 C 68.5 122.148438 70.484375 124.183594 72.960938 124.183594 L 78.265625 124.183594 L 82.332031 130.4375 L 86.050781 124.183594 L 91.703125 124.183594 C 94.132812 124.183594 96.164062 122.195312 96.164062 119.714844 L 96.164062 106.90625 C 96.066406 104.472656 94.082031 102.488281 91.652344 102.488281 Z M 297.007812 133.265625 L 297.007812 146.867188 C 297.007812 149.449219 294.875 151.582031 292.296875 151.582031 L 286.296875 151.582031 L 282.332031 158.234375 L 278.019531 151.582031 L 272.367188 151.582031 C 269.789062 151.582031 267.65625 149.449219 267.65625 146.867188 L 267.65625 133.265625 C 267.65625 130.683594 269.789062 128.550781 272.367188 128.550781 L 292.246094 128.550781 C 294.875 128.550781 297.007812 130.683594 297.007812 133.265625"/><path fill="#0F0E0C" d="M 219.167969 143.492188 C 219.21875 142.945312 219.019531 142.5 218.871094 142.203125 C 218.773438 142.050781 218.820312 141.902344 218.921875 141.804688 C 219.316406 141.355469 219.367188 140.761719 219.117188 140.265625 C 218.871094 139.820312 218.324219 139.519531 217.78125 139.621094 C 217.632812 139.621094 217.484375 139.570312 217.433594 139.421875 C 217.382812 139.273438 217.433594 139.125 217.582031 139.023438 C 218.027344 138.726562 218.175781 138.128906 217.929688 137.683594 C 217.679688 137.285156 217.136719 137.089844 216.691406 137.238281 C 216.492188 137.285156 216.292969 137.238281 216.242188 137.039062 C 216.195312 136.839844 216.242188 136.640625 216.441406 136.59375 C 217.234375 136.292969 218.128906 136.59375 218.523438 137.335938 C 218.820312 137.882812 218.820312 138.476562 218.523438 138.976562 C 219.019531 139.125 219.515625 139.421875 219.761719 139.917969 C 220.160156 140.613281 220.109375 141.457031 219.664062 142.101562 C 219.863281 142.5 220.011719 143.046875 219.960938 143.640625 C 219.8125 144.78125 218.773438 145.773438 217.433594 146.121094 C 217.382812 155.058594 216.640625 163.992188 215.300781 172.582031 C 213.863281 181.765625 212.671875 184.992188 210.34375 185.785156 C 209.945312 185.933594 209.550781 185.984375 209.105469 185.984375 C 203.847656 185.984375 197.007812 175.957031 196.164062 174.714844 C 196.066406 174.566406 196.113281 174.316406 196.261719 174.21875 C 196.410156 174.121094 196.609375 174.167969 196.757812 174.316406 C 197.105469 174.8125 205.1875 186.828125 210.097656 185.089844 C 211.832031 184.492188 213.070312 182.308594 214.558594 172.429688 C 215.894531 163.746094 216.589844 154.808594 216.640625 145.773438 L 216.640625 145.675781 C 216.640625 145.675781 216.640625 145.625 216.691406 145.625 C 216.691406 145.625 216.691406 145.578125 216.738281 145.578125 L 216.839844 145.476562 L 216.9375 145.476562 C 218.128906 145.230469 219.019531 144.433594 219.167969 143.492188 Z M 204.742188 163.445312 L 206.773438 166.671875 L 208.90625 146.519531 C 208.359375 145.179688 207.566406 142.648438 208.558594 140.015625 C 209.402344 137.734375 211.382812 135.898438 212.425781 135.597656 C 212.671875 135.5 212.921875 135.550781 213.070312 135.648438 C 213.46875 135.898438 213.617188 136.492188 211.683594 140.167969 C 211.582031 140.316406 211.382812 140.414062 211.234375 140.316406 C 211.085938 140.214844 210.988281 140.015625 211.085938 139.867188 C 212.476562 137.238281 212.625 136.441406 212.625 136.195312 C 212.128906 136.292969 210.097656 137.933594 209.203125 140.265625 C 208.3125 142.746094 209.054688 145.128906 209.550781 146.320312 C 209.550781 146.371094 209.601562 146.421875 209.601562 146.519531 L 207.367188 167.765625 C 207.367188 167.914062 207.269531 168.015625 207.121094 168.0625 L 207.023438 168.0625 C 206.921875 168.0625 206.773438 168.015625 206.722656 167.914062 L 204.144531 163.894531 C 204.046875 163.746094 204.097656 163.496094 204.246094 163.398438 C 204.445312 163.199219 204.640625 163.25 204.742188 163.445312 Z M 280.992188 209.015625 C 280.992188 209.960938 280.25 210.703125 279.308594 210.703125 C 278.363281 210.703125 277.621094 209.960938 277.621094 209.015625 C 277.621094 208.074219 278.363281 207.328125 279.308594 207.328125 C 280.25 207.328125 280.992188 208.074219 280.992188 209.015625 Z M 291.652344 270.519531 C 291.652344 270.519531 291.703125 270.519531 291.652344 270.519531 C 291.703125 270.519531 291.703125 270.519531 291.652344 270.519531 L 293.386719 270.519531 L 293.386719 274.789062 L 288.976562 274.789062 L 288.976562 270.269531 C 289.769531 270.417969 290.660156 270.519531 291.652344 270.519531 Z M 280.199219 267.886719 C 279.160156 267.738281 278.117188 267.691406 277.074219 267.691406 L 276.628906 267.691406 C 276.480469 267.691406 276.28125 267.691406 276.132812 267.738281 L 275.785156 267.738281 C 275.390625 267.738281 275.042969 267.789062 274.648438 267.839844 C 274.496094 267.839844 274.347656 267.886719 274.199219 267.886719 C 274.050781 267.886719 273.953125 267.9375 273.804688 267.9375 L 273.753906 267.9375 C 272.019531 268.1875 270.234375 268.632812 268.398438 269.226562 C 269.144531 260.890625 269.640625 252.5 269.9375 244.160156 C 270.234375 235.175781 270.285156 226.042969 270.085938 217.058594 L 286.097656 217.058594 C 285.800781 217.554688 285.652344 218.050781 285.851562 218.398438 C 285.949219 218.546875 286.148438 218.746094 286.59375 218.84375 C 286.695312 218.84375 286.84375 218.894531 286.992188 218.894531 C 287.785156 218.894531 288.925781 218.546875 289.867188 217.949219 C 291.601562 225.84375 293.039062 233.835938 294.132812 241.828125 C 295.371094 251.011719 296.214844 260.394531 296.609375 269.726562 C 295.570312 269.875 294.527344 269.921875 293.488281 269.921875 C 292.941406 269.921875 292.347656 269.921875 291.800781 269.875 L 291.703125 269.875 C 290.710938 269.824219 289.667969 269.726562 288.675781 269.574219 L 288.527344 269.574219 C 286.84375 269.328125 285.355469 268.980469 283.96875 268.683594 C 282.679688 268.335938 281.488281 268.085938 280.199219 267.886719 Z M 275.738281 268.382812 C 275.738281 268.382812 275.785156 268.382812 275.738281 268.382812 C 276.132812 268.382812 276.480469 268.335938 276.878906 268.335938 C 277.375 268.335938 277.820312 268.335938 278.316406 268.382812 L 278.316406 274.835938 L 274.199219 274.835938 L 274.199219 268.535156 C 274.695312 268.484375 275.242188 268.433594 275.738281 268.382812 Z M 269.144531 202.5625 L 289.421875 202.5625 L 289.421875 212.441406 C 286.742188 213.484375 286.25 214.03125 286.347656 214.574219 C 286.398438 214.972656 286.792969 215.171875 287.585938 215.320312 L 287.4375 215.46875 L 269.191406 215.46875 Z M 299.484375 277.070312 C 298.988281 276.375 298.148438 276.328125 297.355469 276.226562 C 296.460938 276.128906 295.320312 275.878906 293.882812 275.382812 C 293.933594 275.335938 293.980469 275.234375 293.980469 275.136719 L 293.980469 270.46875 C 294.972656 270.417969 295.964844 270.371094 296.90625 270.222656 C 297.105469 270.222656 297.203125 270.023438 297.203125 269.875 C 296.808594 260.441406 296.015625 250.960938 294.726562 241.628906 C 293.636719 233.539062 292.148438 225.347656 290.363281 217.355469 C 291.503906 216.261719 291.851562 214.875 291.949219 214.078125 C 291.949219 213.878906 291.851562 213.730469 291.652344 213.683594 C 291.453125 213.632812 291.304688 213.78125 291.253906 213.980469 C 291.15625 214.675781 290.859375 216.015625 289.769531 216.957031 C 288.828125 217.800781 287.386719 218.199219 286.59375 218.050781 C 286.398438 218 286.347656 217.949219 286.296875 217.949219 C 286.148438 217.753906 286.84375 216.660156 288.429688 215.222656 C 288.527344 215.121094 288.578125 214.972656 288.527344 214.875 C 288.480469 214.722656 288.378906 214.675781 288.230469 214.625 C 287.289062 214.527344 286.992188 214.375 286.894531 214.328125 C 286.992188 214.179688 287.488281 213.730469 289.964844 212.789062 C 290.164062 212.738281 290.214844 212.539062 290.164062 212.339844 C 290.117188 212.242188 290.066406 212.191406 290.015625 212.144531 L 290.015625 202.066406 C 290.015625 201.867188 289.867188 201.71875 289.667969 201.71875 L 268.699219 201.71875 C 268.5 201.71875 268.351562 201.867188 268.351562 202.066406 L 268.351562 215.667969 C 268.351562 215.867188 268.5 216.015625 268.699219 216.015625 L 268.699219 216.910156 L 269.242188 216.910156 C 269.441406 225.894531 269.390625 234.976562 269.09375 243.960938 C 268.796875 252.449219 268.25 261.039062 267.507812 269.527344 C 267.507812 269.625 267.558594 269.773438 267.65625 269.824219 C 267.753906 269.875 267.855469 269.921875 268.003906 269.875 C 269.835938 269.226562 271.621094 268.78125 273.40625 268.484375 L 273.40625 275.085938 C 272.019531 275.53125 270.929688 275.730469 270.136719 275.832031 C 269.09375 275.929688 268.25 275.929688 267.65625 276.574219 C 267.210938 277.023438 267.109375 277.667969 267.0625 278.0625 L 278.8125 278.0625 L 278.8125 275.433594 C 278.859375 275.382812 278.910156 275.285156 278.910156 275.183594 L 278.910156 268.433594 C 279.257812 268.484375 279.652344 268.484375 280 268.535156 C 281.242188 268.730469 282.429688 268.980469 283.671875 269.277344 C 285.007812 269.574219 286.445312 269.921875 288.132812 270.171875 L 288.132812 275.136719 C 288.132812 275.234375 288.183594 275.335938 288.28125 275.382812 L 288.28125 278.164062 L 299.734375 278.5625 C 299.882812 278.214844 299.832031 277.566406 299.484375 277.070312 Z M 273.851562 182.558594 C 273.457031 181.167969 273.40625 179.628906 273.703125 178.191406 C 273.703125 178.089844 273.804688 177.992188 273.902344 177.941406 C 274.894531 177.59375 275.835938 177.046875 276.679688 176.402344 C 277.671875 175.609375 278.515625 174.664062 279.160156 173.523438 C 279.207031 173.425781 279.308594 173.375 279.457031 173.375 C 279.554688 173.375 279.703125 173.425781 279.753906 173.523438 C 280.398438 174.316406 281.09375 175.113281 281.835938 175.808594 C 282.726562 176.652344 283.71875 177.394531 284.761719 178.039062 C 284.859375 178.089844 284.910156 178.191406 284.910156 178.289062 C 285.109375 179.777344 285.109375 182.011719 284.066406 184.394531 C 283.570312 185.535156 282.828125 186.578125 281.984375 187.472656 L 281.984375 190.003906 C 281.984375 190.203125 281.835938 190.351562 281.636719 190.351562 C 281.4375 190.351562 281.289062 190.203125 281.289062 190.003906 L 281.289062 187.375 C 281.289062 187.273438 281.339844 187.175781 281.390625 187.125 C 282.28125 186.230469 282.976562 185.238281 283.472656 184.148438 C 284.464844 182.011719 284.464844 179.976562 284.316406 178.585938 C 283.273438 177.941406 282.332031 177.195312 281.4375 176.351562 C 280.792969 175.757812 280.148438 175.0625 279.554688 174.417969 C 278.910156 175.410156 278.117188 176.304688 277.125 177.046875 C 276.28125 177.695312 275.339844 178.238281 274.347656 178.636719 C 274.152344 179.925781 274.199219 181.265625 274.546875 182.507812 C 275.042969 184.394531 276.035156 185.734375 276.777344 186.480469 C 276.828125 186.527344 276.878906 186.628906 276.878906 186.726562 L 276.878906 190.054688 C 276.878906 190.253906 276.730469 190.402344 276.53125 190.402344 C 276.332031 190.402344 276.183594 190.253906 276.183594 190.054688 L 276.183594 186.875 C 275.390625 185.882812 274.347656 184.492188 273.851562 182.558594 Z M 86.746094 113.609375 C 86.746094 112.714844 87.488281 111.96875 88.382812 111.96875 C 89.273438 111.96875 90.015625 112.714844 90.015625 113.609375 C 90.015625 114.503906 89.273438 115.246094 88.382812 115.246094 C 87.488281 115.246094 86.746094 114.550781 86.746094 113.609375 Z M 80.84375 113.609375 C 80.84375 112.714844 81.589844 111.96875 82.480469 111.96875 C 83.375 111.96875 84.117188 112.714844 84.117188 113.609375 C 84.117188 114.503906 83.375 115.246094 82.480469 115.246094 C 81.589844 115.246094 80.84375 114.550781 80.84375 113.609375 Z M 74.894531 113.609375 C 74.894531 112.714844 75.640625 111.96875 76.53125 111.96875 C 77.425781 111.96875 78.167969 112.714844 78.167969 113.609375 C 78.167969 114.503906 77.425781 115.246094 76.53125 115.246094 C 75.640625 115.246094 74.894531 114.550781 74.894531 113.609375 Z M 132.851562 95.042969 C 135.28125 95.042969 137.265625 97.027344 137.265625 99.460938 C 137.265625 101.894531 135.28125 103.878906 132.851562 103.878906 C 130.421875 103.878906 128.441406 101.894531 128.441406 99.460938 C 128.390625 97.027344 130.375 95.042969 132.851562 95.042969 Z M 132.851562 104.625 C 135.679688 104.625 137.960938 102.339844 137.960938 99.511719 C 137.960938 96.679688 135.679688 94.398438 132.851562 94.398438 C 130.027344 94.398438 127.746094 96.679688 127.746094 99.511719 C 127.746094 102.339844 130.027344 104.625 132.851562 104.625 Z M 112.328125 263.417969 L 103.898438 263.121094 L 103.652344 259.5 L 111.285156 263.371094 C 111.386719 263.417969 111.535156 263.417969 111.632812 263.371094 L 112.375 262.921875 Z M 66.964844 275.828125 L 66.367188 275.828125 L 66.367188 274.738281 L 66.8125 275.679688 C 66.863281 275.78125 66.914062 275.828125 66.964844 275.828125 Z M 86.84375 267.988281 L 101.867188 275.828125 L 67.359375 275.828125 Z M 112.675781 264.113281 C 112.871094 264.113281 113.019531 263.964844 113.019531 263.816406 L 113.121094 262.226562 C 113.121094 262.078125 113.070312 261.980469 112.972656 261.929688 C 112.871094 261.882812 112.722656 261.882812 112.625 261.929688 L 111.484375 262.675781 L 103.453125 258.605469 C 103.355469 258.554688 103.203125 258.554688 103.105469 258.605469 C 103.007812 258.65625 102.957031 258.804688 102.957031 258.902344 L 103.253906 262.921875 C 101.964844 262.425781 99.386719 261.433594 96.113281 260.191406 L 95.667969 260.042969 C 90.015625 257.859375 88.628906 257.363281 86.597656 257.363281 L 86.546875 257.363281 C 83.71875 257.363281 81.785156 258.355469 77.722656 260.640625 C 73.011719 263.222656 68.300781 265.953125 63.691406 268.730469 C 63.542969 268.832031 63.492188 269.027344 63.542969 269.179688 L 65.625 273.398438 L 65.625 276.226562 C 65.625 276.425781 65.773438 276.574219 65.972656 276.574219 L 103.203125 276.574219 L 112.675781 278.460938 L 112.722656 278.460938 C 112.871094 278.460938 113.019531 278.359375 113.070312 278.164062 C 113.121094 277.964844 112.972656 277.816406 112.824219 277.765625 L 103.355469 275.878906 L 86.992188 267.339844 C 86.894531 267.292969 86.792969 267.292969 86.695312 267.339844 L 67.261719 275.183594 L 64.335938 269.179688 C 68.847656 266.496094 73.457031 263.816406 78.070312 261.285156 C 82.035156 259.101562 83.917969 258.109375 86.546875 258.109375 L 86.597656 258.109375 C 88.53125 258.109375 89.867188 258.605469 95.421875 260.738281 L 95.816406 260.886719 C 99.585938 262.328125 102.410156 263.417969 103.453125 263.816406 L 108.3125 266.199219 C 108.460938 266.296875 108.707031 266.199219 108.757812 266.050781 C 108.855469 265.902344 108.757812 265.652344 108.609375 265.605469 L 105.1875 263.917969 Z M 116.046875 231.304688 C 115.75 231.800781 115.203125 232.148438 114.558594 232.296875 C 114.410156 232.34375 114.308594 232.445312 114.261719 232.59375 C 114.0625 234.082031 113.964844 235.570312 114.011719 237.0625 C 114.0625 238.203125 114.113281 239.34375 114.308594 240.484375 C 109.003906 244.257812 108.164062 243.863281 108.015625 243.761719 C 107.765625 243.5625 107.964844 242.273438 108.164062 240.734375 C 108.210938 240.484375 108.210938 240.289062 108.261719 240.089844 C 108.359375 239.542969 108.410156 239.097656 108.410156 238.449219 C 108.410156 237.757812 108.3125 237.011719 108.164062 236.316406 C 108.113281 236.167969 107.964844 236.070312 107.816406 236.070312 L 107.765625 236.070312 C 106.824219 236.117188 106.082031 235.96875 105.535156 235.570312 C 104.148438 234.53125 104.246094 232.195312 104.34375 229.765625 C 104.394531 228.523438 104.542969 227.234375 104.839844 225.992188 C 105.683594 226.585938 106.625 227.035156 107.667969 227.28125 C 109.5 227.730469 111.085938 227.429688 112.128906 227.132812 C 112.078125 227.730469 112.078125 228.324219 112.179688 228.921875 C 112.277344 229.566406 112.375 230.113281 112.871094 230.359375 C 113.367188 230.609375 114.113281 230.460938 114.757812 229.863281 C 115.5 229.863281 116.046875 230.261719 116.144531 230.609375 C 116.242188 230.65625 116.195312 231.003906 116.046875 231.304688 Z M 110.441406 253.492188 L 103.652344 250.015625 C 103.453125 248.976562 103.253906 246.640625 104.644531 244.359375 C 105.4375 243.066406 106.476562 242.222656 107.320312 241.675781 C 107.121094 243.066406 107.121094 243.761719 107.519531 244.160156 C 107.667969 244.308594 107.863281 244.40625 108.210938 244.40625 C 108.660156 244.40625 109.351562 244.210938 110.394531 243.664062 L 110.394531 253.492188 Z M 114.65625 229.019531 C 114.558594 229.019531 114.507812 229.070312 114.410156 229.117188 C 113.914062 229.617188 113.417969 229.765625 113.21875 229.617188 C 113.070312 229.515625 112.972656 229.21875 112.921875 228.671875 C 112.824219 227.976562 112.824219 227.28125 112.921875 226.539062 C 112.921875 226.4375 112.871094 226.289062 112.824219 226.191406 C 112.722656 226.089844 112.574219 226.089844 112.476562 226.140625 C 111.632812 226.488281 109.898438 226.933594 107.914062 226.4375 C 106.824219 226.191406 105.832031 225.644531 104.941406 224.949219 C 104.839844 224.851562 104.742188 224.851562 104.59375 224.898438 C 104.492188 224.949219 104.394531 225.046875 104.34375 225.148438 C 104 226.585938 103.75 228.078125 103.699219 229.566406 C 103.601562 232.195312 103.503906 234.726562 105.136719 235.96875 C 105.734375 236.414062 106.574219 236.664062 107.519531 236.664062 C 107.617188 237.210938 107.667969 237.804688 107.714844 238.351562 C 107.714844 238.949219 107.667969 239.34375 107.566406 239.890625 C 107.519531 240.089844 107.519531 240.289062 107.46875 240.585938 C 107.46875 240.683594 107.417969 240.785156 107.417969 240.882812 C 106.425781 241.429688 105.039062 242.371094 104.046875 244.058594 C 102.460938 246.640625 102.808594 249.320312 103.007812 250.363281 C 103.007812 250.464844 103.105469 250.5625 103.203125 250.613281 L 110.640625 254.433594 C 110.691406 254.484375 110.742188 254.484375 110.789062 254.484375 C 110.839844 254.484375 110.9375 254.484375 110.988281 254.433594 C 111.085938 254.386719 111.136719 254.238281 111.136719 254.136719 L 111.136719 243.414062 C 112.078125 242.867188 113.320312 242.074219 114.855469 240.984375 C 114.953125 240.882812 115.003906 240.785156 115.003906 240.636719 C 114.804688 239.445312 114.707031 238.253906 114.707031 237.0625 C 114.65625 235.671875 114.757812 234.332031 114.90625 232.941406 C 115.648438 232.742188 116.292969 232.296875 116.640625 231.699219 C 116.9375 231.203125 116.988281 230.707031 116.839844 230.308594 C 116.589844 229.515625 115.699219 229.019531 114.65625 229.019531 Z M 132.753906 256.222656 C 130.324219 256.222656 128.339844 254.238281 128.339844 251.804688 C 128.339844 249.371094 130.324219 247.386719 132.753906 247.386719 C 135.183594 247.386719 137.164062 249.371094 137.164062 251.804688 C 137.164062 254.238281 135.183594 256.222656 132.753906 256.222656 Z M 132.753906 246.640625 C 129.925781 246.640625 127.648438 248.925781 127.648438 251.753906 C 127.648438 254.582031 129.925781 256.867188 132.753906 256.867188 C 135.578125 256.867188 137.859375 254.582031 137.859375 251.753906 C 137.859375 248.976562 135.578125 246.640625 132.753906 246.640625 Z M 146.089844 220.679688 C 143.660156 220.679688 141.675781 218.695312 141.675781 216.261719 C 141.675781 213.828125 143.660156 211.84375 146.089844 211.84375 C 148.519531 211.84375 150.503906 213.828125 150.503906 216.261719 C 150.550781 218.695312 148.519531 220.679688 146.089844 220.679688 Z M 146.089844 211.101562 C 143.265625 211.101562 140.984375 213.382812 140.984375 216.210938 C 140.984375 219.042969 143.265625 221.324219 146.089844 221.324219 C 148.917969 221.324219 151.195312 219.042969 151.195312 216.210938 C 151.195312 213.433594 148.917969 211.101562 146.089844 211.101562 Z M 132.753906 220.679688 C 130.324219 220.679688 128.339844 218.695312 128.339844 216.261719 C 128.339844 213.828125 130.324219 211.84375 132.753906 211.84375 C 135.183594 211.84375 137.164062 213.828125 137.164062 216.261719 C 137.164062 218.695312 135.183594 220.679688 132.753906 220.679688 Z M 132.753906 211.101562 C 129.925781 211.101562 127.648438 213.382812 127.648438 216.210938 C 127.648438 219.042969 129.925781 221.324219 132.753906 221.324219 C 135.578125 221.324219 137.859375 219.042969 137.859375 216.210938 C 137.859375 213.433594 135.578125 211.101562 132.753906 211.101562 Z M 205.484375 132.917969 C 205.433594 132.71875 205.484375 132.519531 205.683594 132.472656 L 213.417969 129.34375 C 213.617188 129.292969 213.8125 129.34375 213.863281 129.542969 C 213.914062 129.742188 213.863281 129.9375 213.664062 129.988281 L 205.929688 133.117188 C 205.882812 133.117188 205.832031 133.164062 205.78125 133.164062 C 205.683594 133.117188 205.535156 133.066406 205.484375 132.917969 Z M 219.117188 128.300781 C 219.21875 128.449219 219.21875 128.648438 219.070312 128.796875 C 219.019531 128.847656 218.921875 128.847656 218.871094 128.847656 C 218.773438 128.847656 218.671875 128.796875 218.574219 128.699219 C 216.738281 126.265625 215.449219 123.535156 214.605469 120.65625 C 213.960938 118.375 213.664062 116.039062 213.714844 113.707031 C 213.714844 113.507812 213.863281 113.359375 214.0625 113.359375 C 214.261719 113.359375 214.410156 113.507812 214.410156 113.707031 C 214.359375 115.992188 214.65625 118.273438 215.25 120.457031 C 216.09375 123.289062 217.382812 125.917969 219.117188 128.300781 Z M 93.386719 245.75 L 93.6875 246.046875 C 94.03125 246.394531 94.378906 246.691406 94.726562 246.988281 L 92.941406 249.371094 C 92.347656 249.171875 91.851562 248.824219 91.453125 248.378906 C 90.5625 247.335938 90.511719 245.945312 90.613281 245.402344 L 91.257812 246.046875 C 91.800781 246.542969 92.445312 246.9375 93.140625 247.238281 C 93.238281 247.285156 93.386719 247.285156 93.488281 247.1875 C 93.585938 247.089844 93.636719 246.9375 93.585938 246.839844 C 93.535156 246.34375 93.4375 245.996094 93.386719 245.75 Z M 89.027344 241.527344 C 88.679688 241.925781 88.332031 242.273438 87.984375 242.671875 L 90.265625 244.707031 C 90.164062 244.804688 90.066406 244.953125 90.015625 245.152344 C 89.820312 245.945312 89.96875 247.632812 91.007812 248.824219 C 91.503906 249.421875 92.199219 249.867188 93.042969 250.117188 L 93.140625 250.117188 C 93.238281 250.117188 93.339844 250.066406 93.4375 249.96875 L 95.570312 247.089844 C 95.621094 247.039062 95.667969 246.941406 95.621094 246.839844 C 95.621094 246.742188 95.570312 246.691406 95.46875 246.59375 C 95.023438 246.246094 94.628906 245.898438 94.230469 245.5 L 93.835938 245.101562 C 93.488281 244.753906 93.238281 244.507812 92.941406 244.65625 C 92.890625 244.65625 92.84375 244.707031 92.84375 244.753906 C 91.554688 243.714844 90.265625 242.621094 89.027344 241.527344 Z M 122.539062 125.273438 L 127.648438 125.273438 C 125.714844 127.605469 124.425781 130.089844 122.539062 131.777344 Z M 235.828125 115.097656 C 233.941406 108.84375 230.570312 104.375 227.992188 101.644531 L 231.5625 98.964844 C 233.695312 100.15625 239.941406 104.328125 242.273438 112.464844 C 243.660156 117.28125 243.164062 121.550781 242.320312 124.726562 L 242.320312 124.828125 C 241.777344 126.710938 241.132812 128.203125 240.636719 129.195312 L 236.96875 129.292969 C 237.5625 124.578125 237.214844 119.664062 235.828125 115.097656 Z M 228.539062 117.28125 C 230.027344 121.75 232.503906 125.867188 235.726562 129.34375 L 217.085938 129.742188 C 215.402344 127.40625 214.0625 124.828125 213.167969 122.097656 C 212.277344 119.414062 211.832031 116.585938 211.832031 113.757812 L 227.050781 102.390625 C 226.457031 107.351562 226.953125 112.515625 228.539062 117.28125 Z M 236.273438 128.898438 C 233.148438 125.519531 230.671875 121.402344 229.234375 117.03125 C 227.25 111.226562 227.300781 105.960938 227.746094 102.390625 C 230.273438 105.070312 233.398438 109.339844 235.183594 115.296875 C 236.472656 119.664062 236.867188 124.378906 236.273438 128.898438 Z M 245.148438 124.578125 L 243.066406 124.578125 C 243.90625 121.351562 244.304688 117.082031 242.917969 112.316406 C 240.4375 103.628906 233.695312 99.363281 231.664062 98.269531 C 231.5625 98.21875 231.414062 98.21875 231.316406 98.320312 L 211.285156 113.308594 C 211.1875 113.359375 211.136719 113.460938 211.136719 113.609375 C 211.136719 116.585938 211.582031 119.515625 212.523438 122.34375 C 213.46875 125.222656 214.855469 127.902344 216.640625 130.335938 C 216.691406 130.4375 216.789062 130.484375 216.9375 130.484375 L 240.835938 129.988281 C 240.984375 129.988281 241.082031 129.9375 241.132812 129.789062 C 241.628906 128.847656 242.371094 127.308594 242.917969 125.324219 L 245.195312 125.324219 L 245.195312 205.09375 L 200.179688 205.09375 C 200.328125 205.042969 200.429688 204.84375 200.378906 204.695312 L 195.769531 188.960938 C 195.71875 188.761719 195.519531 188.664062 195.320312 188.710938 C 195.125 188.761719 195.023438 188.960938 195.074219 189.160156 L 195.917969 192.089844 L 163.34375 192.089844 L 164.929688 189.207031 C 165.027344 189.058594 164.980469 188.8125 164.78125 188.761719 C 164.632812 188.664062 164.382812 188.710938 164.335938 188.910156 L 160.617188 195.511719 L 149.808594 176.152344 L 152.140625 172.730469 C 152.238281 172.578125 152.1875 172.382812 152.039062 172.230469 C 151.890625 172.132812 151.691406 172.183594 151.542969 172.332031 L 149.113281 175.90625 C 149.066406 176.003906 149.015625 176.152344 149.113281 176.253906 L 160.269531 196.160156 C 160.21875 196.308594 160.269531 196.457031 160.417969 196.554688 L 160.515625 196.554688 L 161.210938 197.796875 C 161.210938 197.847656 161.160156 197.894531 161.210938 197.945312 C 161.261719 198.09375 161.410156 198.242188 161.558594 198.242188 L 161.609375 198.242188 C 162.996094 198.886719 164.285156 199.683594 165.425781 200.675781 C 166.960938 201.917969 168.101562 203.207031 168.25 203.652344 C 168.003906 203.652344 167.210938 203.554688 164.632812 202.414062 C 164.535156 202.363281 164.382812 202.363281 164.285156 202.460938 C 164.1875 202.5625 164.136719 202.660156 164.136719 202.808594 C 164.335938 203.851562 164.683594 204.894531 165.179688 205.886719 C 165.824219 207.179688 166.664062 208.371094 167.707031 209.363281 C 166.121094 209.3125 163.394531 208.914062 160.914062 206.929688 C 158.386719 204.945312 157.445312 202.363281 157.046875 200.972656 C 157.046875 200.875 156.996094 200.824219 156.898438 200.773438 C 152.386719 197.648438 148.222656 194.074219 144.554688 190.050781 C 138.703125 183.699219 135.878906 180.421875 135.878906 175.707031 C 135.878906 170.496094 139.445312 166.375 142.472656 163.792969 C 142.621094 163.695312 142.621094 163.445312 142.519531 163.296875 C 142.421875 163.148438 142.171875 163.148438 142.023438 163.246094 C 141.976562 163.296875 141.925781 163.296875 141.925781 163.347656 C 141.675781 163.148438 141.480469 162.898438 141.230469 162.703125 C 145.246094 157.984375 148.816406 154.363281 151.542969 151.78125 C 156.75 146.765625 158.78125 145.574219 160.21875 144.832031 C 164.730469 142.546875 169.046875 142.199219 171.921875 142.199219 C 171.921875 142.347656 172.019531 142.5 172.167969 142.546875 L 172.265625 142.546875 C 172.417969 142.546875 172.566406 142.449219 172.613281 142.300781 C 173.40625 139.917969 173.855469 137.386719 174.003906 134.902344 C 174.152344 132.222656 173.902344 129.492188 173.257812 126.863281 C 173.210938 126.761719 173.160156 126.664062 173.0625 126.613281 C 170.53125 125.621094 168.847656 123.832031 168.996094 122.394531 C 168.996094 122.195312 169.09375 121.5 169.691406 121.003906 C 170.433594 120.308594 171.621094 120.210938 172.8125 120.707031 C 172.863281 120.707031 172.910156 120.757812 172.960938 120.707031 C 175.191406 120.507812 178.515625 119.761719 181.835938 117.429688 C 185.109375 115.097656 186.941406 112.167969 187.882812 109.933594 C 188.777344 111.226562 189.816406 112.367188 191.105469 113.308594 C 191.902344 113.90625 192.792969 114.453125 193.683594 114.898438 C 193.785156 117.378906 193.734375 119.914062 193.535156 122.34375 C 193.140625 128.597656 192.246094 130.386719 191.40625 131.328125 C 190.414062 132.421875 189.074219 133.164062 187.339844 133.5625 C 187.191406 133.613281 187.089844 133.710938 187.089844 133.8125 C 186.695312 135.398438 186.546875 136.988281 186.59375 138.625 C 186.644531 139.867188 186.792969 141.109375 187.089844 142.300781 C 187.140625 142.5 187.339844 142.597656 187.488281 142.546875 C 187.6875 142.5 187.785156 142.300781 187.734375 142.152344 C 187.4375 141.007812 187.289062 139.816406 187.238281 138.625 C 187.191406 137.136719 187.339844 135.648438 187.6875 134.207031 C 189.421875 133.761719 190.808594 132.96875 191.851562 131.777344 C 192.644531 130.882812 193.4375 129.441406 193.933594 125.175781 L 198.097656 125.175781 C 198.195312 125.570312 198.296875 126.019531 198.445312 126.414062 C 199.238281 129.046875 200.429688 131.578125 201.964844 133.910156 C 202.015625 134.011719 202.164062 134.058594 202.261719 134.058594 C 202.3125 134.058594 202.363281 134.058594 202.410156 134.011719 L 204.34375 133.164062 C 204.542969 133.066406 204.59375 132.867188 204.542969 132.71875 C 204.445312 132.519531 204.246094 132.472656 204.097656 132.519531 L 202.410156 133.265625 C 201.023438 131.082031 199.882812 128.699219 199.140625 126.214844 C 198.445312 123.984375 198.046875 121.648438 197.898438 119.265625 L 200.03125 118.324219 C 200.230469 118.222656 200.277344 118.027344 200.179688 117.878906 C 200.082031 117.679688 199.882812 117.628906 199.734375 117.726562 L 197.402344 118.769531 C 197.253906 118.820312 197.207031 118.96875 197.207031 119.117188 C 197.304688 120.953125 197.550781 122.742188 197.949219 124.527344 L 194.03125 124.527344 C 194.082031 123.882812 194.132812 123.1875 194.230469 122.394531 C 194.328125 120.855469 194.378906 119.316406 194.378906 117.726562 C 195.519531 116.089844 196.957031 113.308594 196.363281 110.28125 C 195.273438 104.824219 187.835938 101.445312 182.085938 101.445312 C 171.375 101.496094 170.828125 113.160156 156.800781 118.324219 C 144.304688 122.941406 137.710938 116.140625 130.027344 122.792969 C 129.382812 123.335938 128.835938 123.933594 128.292969 124.527344 C 128.242188 124.480469 128.144531 124.429688 128.042969 124.429688 L 122.640625 124.429688 L 122.640625 87.695312 L 245.246094 87.695312 L 245.246094 124.578125 Z M 190.910156 192.734375 C 191.15625 193.578125 191.949219 195.464844 193.984375 196.503906 C 195.074219 197.101562 196.214844 197.25 197.007812 197.25 L 197.453125 197.25 L 199.683594 204.84375 C 199.734375 204.945312 199.832031 205.042969 199.933594 205.042969 L 179.851562 205.042969 L 181.390625 202.761719 C 181.441406 202.710938 181.441406 202.660156 181.441406 202.5625 L 181.441406 192.683594 L 190.910156 192.683594 Z M 197.253906 196.554688 C 196.511719 196.605469 195.421875 196.503906 194.328125 195.910156 C 192.695312 195.015625 191.949219 193.527344 191.652344 192.734375 L 196.113281 192.734375 Z M 180.746094 192.734375 L 180.746094 202.460938 L 179.554688 204.25 L 179.554688 192.734375 Z M 161.011719 196.160156 L 162.945312 192.734375 L 167.90625 192.734375 C 167.410156 193.726562 166.617188 194.917969 165.226562 195.960938 C 164.234375 196.703125 163.046875 197.25 161.757812 197.546875 Z M 122.539062 205.738281 L 157.445312 205.738281 C 157.640625 205.738281 157.789062 205.589844 157.789062 205.390625 C 157.789062 205.191406 157.640625 205.042969 157.445312 205.042969 L 122.539062 205.042969 L 122.539062 175.109375 C 125.464844 176.203125 129.53125 176.898438 135.234375 176.949219 C 135.726562 181.5625 139.097656 185.238281 144.007812 190.597656 C 147.675781 194.621094 151.839844 198.195312 156.351562 201.320312 C 156.75 202.808594 157.789062 205.441406 160.417969 207.527344 C 163.195312 209.757812 166.269531 210.105469 167.90625 210.105469 L 168.550781 210.105469 C 168.699219 210.105469 168.796875 210.007812 168.847656 209.859375 C 168.894531 209.710938 168.847656 209.5625 168.746094 209.460938 C 167.457031 208.371094 166.46875 207.078125 165.722656 205.589844 C 165.375 204.894531 165.078125 204.148438 164.929688 203.355469 C 168.054688 204.746094 168.597656 204.449219 168.847656 204.101562 C 169.390625 203.257812 166.914062 201.074219 165.824219 200.179688 C 164.832031 199.335938 163.738281 198.640625 162.601562 198.042969 C 163.691406 197.695312 164.730469 197.199219 165.671875 196.503906 C 167.308594 195.316406 168.203125 193.824219 168.699219 192.734375 L 178.863281 192.734375 L 178.863281 205.042969 L 166.121094 205.042969 C 165.921875 205.042969 165.773438 205.191406 165.773438 205.390625 C 165.773438 205.589844 165.921875 205.738281 166.121094 205.738281 L 245.148438 205.738281 L 245.148438 263.816406 L 122.539062 263.816406 Z M 249.0625 265.851562 C 249.0625 273.148438 243.113281 279.105469 235.828125 279.105469 L 131.464844 279.105469 C 124.175781 279.105469 118.226562 273.148438 118.226562 265.851562 L 118.226562 172.628906 C 119.167969 173.421875 120.359375 174.167969 121.847656 174.8125 L 121.847656 264.164062 C 121.847656 264.363281 121.996094 264.511719 122.191406 264.511719 L 245.496094 264.511719 C 245.691406 264.511719 245.839844 264.363281 245.839844 264.164062 L 245.839844 87.347656 C 245.839844 87.148438 245.691406 87 245.496094 87 L 122.191406 87 C 121.996094 87 121.847656 87.148438 121.847656 87.347656 L 121.847656 132.371094 C 120.902344 133.066406 119.8125 133.613281 118.476562 133.859375 C 118.375 133.859375 118.277344 133.910156 118.226562 133.910156 L 118.226562 87.894531 C 118.226562 80.597656 124.175781 74.640625 131.464844 74.640625 L 235.828125 74.640625 C 243.113281 74.640625 249.0625 80.597656 249.0625 87.894531 Z M 127.648438 74.492188 C 121.796875 76.128906 117.53125 81.539062 117.53125 87.894531 L 117.53125 134.011719 C 114.160156 134.40625 112.328125 133.164062 109.304688 134.753906 C 105.78125 136.589844 103.253906 141.15625 103.847656 145.03125 C 104.445312 148.902344 107.667969 149.296875 111.039062 153.964844 C 115.898438 160.667969 113.320312 165.679688 116.242188 170.347656 C 116.589844 170.890625 116.988281 171.4375 117.53125 171.984375 L 117.53125 265.851562 C 117.53125 273.546875 123.78125 279.800781 131.464844 279.800781 L 235.828125 279.800781 C 243.511719 279.800781 249.757812 273.546875 249.757812 265.851562 L 249.757812 87.894531 C 249.757812 80.199219 243.511719 73.945312 235.828125 73.945312 L 131.464844 73.945312 C 130.125 73.996094 128.886719 74.144531 127.648438 74.492188"/><path fill="#FFF" d="M 280.496094 136.890625 L 280.746094 134.308594 L 282.035156 134.507812 L 283.324219 137.136719 L 283.074219 138.429688 L 287.289062 138.082031 L 287.933594 139.371094 L 287.339844 141.109375 L 288.28125 141.855469 L 287.535156 143.394531 L 287.785156 145.03125 L 285.949219 146.171875 L 279.503906 145.925781 L 280.050781 143.394531 L 280.496094 136.890625"/><path fill="#0F0E0C" d="M 44.453125 146.667969 C 44.304688 146.769531 44.257812 146.964844 44.355469 147.117188 C 44.652344 147.613281 44.601562 148.007812 44.550781 148.207031 C 44.355469 149.101562 43.265625 149.746094 41.976562 149.746094 L 36.472656 149.746094 L 36.472656 141.457031 C 36.671875 140.710938 36.769531 139.917969 36.820312 139.125 L 36.820312 138.082031 C 36.820312 137.484375 36.820312 137.089844 36.96875 136.988281 C 37.167969 136.839844 37.710938 137.039062 38.058594 137.238281 C 39.59375 138.179688 39.296875 141.058594 39.25 141.40625 C 39.25 141.507812 39.25 141.605469 39.347656 141.65625 C 39.398438 141.703125 39.496094 141.753906 39.59375 141.753906 C 40.734375 141.753906 41.824219 141.65625 42.867188 141.554688 L 42.964844 141.554688 C 43.5625 141.457031 44.109375 141.40625 44.402344 141.703125 C 44.601562 141.902344 44.652344 142.203125 44.703125 142.398438 C 44.851562 143.09375 44.503906 143.738281 44.355469 144.039062 C 44.304688 144.136719 44.304688 144.238281 44.304688 144.335938 C 44.355469 144.433594 44.402344 144.535156 44.503906 144.535156 C 44.703125 144.582031 45 144.734375 45.148438 145.03125 C 45.347656 145.527344 45.148438 146.222656 44.453125 146.667969 Z M 45.097656 144.085938 C 45.296875 143.640625 45.496094 142.996094 45.394531 142.300781 C 45.347656 142.003906 45.25 141.554688 44.851562 141.207031 C 44.304688 140.710938 43.5625 140.8125 42.867188 140.910156 L 42.769531 140.910156 C 41.875 141.011719 40.933594 141.109375 39.941406 141.109375 C 39.992188 140.066406 39.941406 137.632812 38.355469 136.691406 C 38.15625 136.59375 37.167969 135.996094 36.519531 136.441406 C 36.078125 136.742188 36.078125 137.335938 36.078125 138.128906 L 36.078125 139.125 C 36.027344 139.867188 35.925781 140.664062 35.777344 141.355469 L 35.777344 141.457031 L 33 141.457031 L 33 150.492188 L 41.925781 150.492188 C 43.5625 150.492188 44.898438 149.597656 45.148438 148.40625 C 45.199219 148.109375 45.199219 147.660156 45 147.117188 C 45.742188 146.519531 46.039062 145.578125 45.695312 144.832031 C 45.59375 144.433594 45.347656 144.238281 45.097656 144.085938 Z M 83.273438 176.402344 L 76.53125 183.152344 L 69.789062 176.402344 C 68.101562 174.515625 68.203125 171.636719 69.9375 169.851562 C 71.722656 168.0625 74.648438 167.964844 76.53125 169.652344 C 78.316406 168.0625 80.894531 167.914062 82.582031 169.15625 C 84.710938 170.644531 85.207031 174.019531 83.273438 176.402344 Z M 280.496094 138.429688 C 280.644531 137.785156 280.746094 137.089844 280.792969 136.394531 L 280.792969 135.5 C 280.792969 135.054688 280.792969 134.65625 280.894531 134.558594 C 281.042969 134.457031 281.488281 134.605469 281.785156 134.753906 C 283.074219 135.550781 282.828125 138.03125 282.828125 138.28125 C 282.828125 138.378906 282.828125 138.476562 282.925781 138.527344 C 282.976562 138.578125 283.074219 138.628906 283.175781 138.628906 C 284.164062 138.628906 285.109375 138.578125 286 138.429688 L 286.097656 138.429688 C 286.59375 138.378906 287.042969 138.28125 287.289062 138.527344 C 287.4375 138.675781 287.488281 138.925781 287.535156 139.125 C 287.636719 139.71875 287.386719 140.265625 287.238281 140.511719 C 287.191406 140.613281 287.191406 140.710938 287.191406 140.8125 C 287.238281 140.910156 287.289062 141.011719 287.386719 141.011719 C 287.488281 141.058594 287.785156 141.160156 287.882812 141.457031 C 288.03125 141.804688 287.882812 142.398438 287.289062 142.796875 C 287.140625 142.894531 287.089844 143.09375 287.191406 143.242188 C 287.386719 143.640625 287.386719 143.9375 287.386719 144.136719 C 287.238281 144.882812 286.296875 145.429688 285.207031 145.429688 L 280.496094 145.429688 Z M 280.148438 146.222656 L 285.207031 146.222656 C 286.644531 146.222656 287.835938 145.429688 288.03125 144.386719 C 288.082031 144.136719 288.082031 143.738281 287.933594 143.292969 C 288.578125 142.746094 288.824219 141.953125 288.527344 141.308594 C 288.378906 141.011719 288.179688 140.8125 287.984375 140.710938 C 288.179688 140.316406 288.332031 139.769531 288.230469 139.171875 C 288.179688 138.925781 288.132812 138.527344 287.785156 138.179688 C 287.289062 137.734375 286.644531 137.832031 286.050781 137.882812 L 285.949219 137.882812 C 285.207031 137.980469 284.414062 138.03125 283.570312 138.03125 C 283.621094 137.089844 283.570312 135.054688 282.183594 134.210938 C 281.933594 134.058594 281.140625 133.613281 280.546875 134.011719 C 280.148438 134.308594 280.148438 134.804688 280.148438 135.5 L 280.148438 136.34375 C 280.101562 136.988281 280 137.632812 279.851562 138.28125 L 279.851562 138.378906 L 277.523438 138.378906 L 277.523438 146.171875 L 280 146.171875 C 280.050781 146.222656 280.101562 146.222656 280.148438 146.222656 Z M 289.222656 187.222656 L 281.585938 187.222656 C 282.230469 186.578125 283.027344 185.585938 283.671875 184.195312 C 284.808594 181.664062 284.660156 179.332031 284.511719 178.289062 C 283.621094 177.742188 282.578125 177 281.539062 176.003906 C 280.644531 175.210938 279.953125 174.417969 279.40625 173.722656 C 278.960938 174.46875 278.167969 175.65625 276.828125 176.699219 C 275.738281 177.542969 274.695312 178.039062 273.953125 178.289062 C 273.804688 179.132812 273.65625 180.671875 274.101562 182.507812 C 274.648438 184.644531 275.785156 185.984375 276.429688 186.628906 L 276.429688 187.222656 L 269.738281 187.222656 C 268.648438 184.691406 268.699219 182.855469 269.191406 181.515625 C 269.6875 180.125 270.382812 180.027344 271.324219 178.140625 C 272.714844 175.410156 271.871094 174.316406 272.960938 172.730469 C 274.648438 170.199219 278.515625 170.148438 279.308594 170.097656 C 282.429688 170.050781 286.59375 171.488281 287.535156 174.316406 C 288.28125 176.453125 286.59375 177.644531 287.6875 180.175781 C 288.332031 181.714844 289.320312 182.0625 289.667969 183.648438 C 289.964844 185.039062 289.570312 186.332031 289.222656 187.222656 Z M 166.914062 100.652344 L 141.480469 100.652344 L 141.480469 98.667969 L 166.914062 98.667969 Z M 119.21875 228.871094 C 119.464844 231.550781 117.53125 234.332031 114.359375 235.273438 C 114.410156 234.332031 114.460938 233.4375 114.609375 232.59375 C 116.09375 232.347656 116.789062 231.105469 116.542969 230.3125 C 116.34375 229.765625 115.597656 229.320312 114.65625 229.367188 C 114.0625 229.914062 113.46875 230.164062 113.019531 229.914062 C 112.722656 229.765625 112.625 229.320312 112.527344 228.722656 C 112.425781 228.226562 112.375 227.433594 112.527344 226.488281 C 111.832031 226.785156 109.996094 227.332031 107.765625 226.785156 C 106.277344 226.4375 105.238281 225.695312 104.640625 225.246094 C 104.394531 226.140625 104.246094 226.984375 104.148438 227.78125 C 103.503906 226.539062 102.90625 225.246094 102.261719 224.007812 C 104.394531 220.582031 108.3125 218.992188 111.632812 220.035156 C 114.90625 221.027344 116.242188 224.207031 116.492188 224.703125 C 116.839844 224.949219 118.96875 226.390625 119.21875 228.871094 Z M 141.332031 250.714844 L 168.101562 250.714844 L 168.101562 252.847656 L 141.332031 252.847656 Z M 155.511719 240.636719 L 128.738281 240.636719 L 128.738281 238.5 L 155.511719 238.5 Z M 128.738281 232.246094 L 238.554688 232.246094 L 238.554688 234.382812 L 128.738281 234.382812 Z M 128.738281 225.941406 L 238.554688 225.941406 L 238.554688 228.277344 L 128.738281 228.277344 Z M 154.714844 218.101562 L 197.007812 218.101562 L 197.007812 220.332031 L 154.714844 220.332031 Z M 180.148438 212.492188 L 180.148438 214.476562 L 154.714844 214.476562 L 154.714844 212.492188 Z M 198.046875 270.617188 C 198.046875 272.15625 196.808594 273.449219 195.222656 273.449219 L 171.96875 273.449219 C 170.433594 273.449219 169.144531 272.207031 169.144531 270.617188 C 169.144531 269.078125 170.382812 267.789062 171.96875 267.789062 L 195.222656 267.789062 C 196.757812 267.839844 198.046875 269.078125 198.046875 270.617188 Z M 169.9375 82.1875 L 198.296875 82.1875 C 199.140625 82.1875 199.785156 81.542969 199.785156 80.699219 C 199.785156 79.855469 199.140625 79.207031 198.296875 79.207031 L 169.9375 79.207031 C 169.09375 79.207031 168.449219 79.855469 168.449219 80.699219 C 168.449219 81.542969 169.144531 82.1875 169.9375 82.1875 Z M 328.984375 191.046875 L 320.554688 182.609375 C 318.472656 180.273438 318.523438 176.652344 320.753906 174.417969 C 322.984375 172.183594 326.605469 172.035156 328.984375 174.167969 C 331.265625 172.183594 334.4375 171.984375 336.570312 173.523438 C 339.199219 175.410156 339.84375 179.628906 337.414062 182.609375 Z M 66.765625 275.085938 C 66.515625 275.183594 66.269531 275.285156 66.019531 275.433594 L 66.019531 275.78125 L 65.226562 275.78125 C 64.433594 276.179688 63.589844 276.625 62.699219 277.121094 C 61.507812 277.816406 60.46875 278.5625 59.574219 279.253906 C 58.882812 278.0625 58.238281 276.972656 57.644531 275.980469 C 56.203125 276.027344 54.816406 276.027344 53.378906 276.078125 C 53.03125 266.746094 53.230469 262.03125 54.023438 261.929688 C 54.566406 261.882812 55.410156 264.066406 56.550781 268.582031 C 56.996094 268.980469 57.492188 269.378906 57.988281 269.921875 L 64.285156 269.921875 L 65.773438 272.605469 L 65.824219 273.300781 C 66.167969 273.894531 66.46875 274.492188 66.765625 275.085938"/><path fill="#F8D210" d="M 231.363281 122.046875 C 233.25 120.460938 235.183594 118.820312 237.066406 117.234375 C 237.164062 117.035156 238.109375 115.394531 237.363281 113.460938 C 236.667969 111.625 234.933594 110.976562 234.734375 110.878906 C 232.457031 110.976562 230.125 111.078125 227.84375 111.175781 C 228.042969 112.765625 228.390625 114.75 229.132812 116.933594 C 229.777344 118.96875 230.570312 120.65625 231.363281 122.046875 Z M 254.617188 275.335938 C 254.617188 270.417969 251.097656 266.546875 246.933594 266.101562 C 243.859375 265.804688 240.734375 267.492188 238.902344 270.371094 C 236.324219 268.535156 232.953125 268.1875 230.125 269.476562 C 226.457031 271.164062 225.515625 274.835938 225.367188 275.335938 C 223.136719 275.679688 221.5 277.667969 221.546875 279.902344 C 221.597656 282.234375 223.480469 284.171875 225.863281 284.269531 L 254.566406 284.269531 C 257.097656 284.320312 259.179688 282.382812 259.328125 280.050781 C 259.523438 277.566406 257.34375 275.285156 254.617188 275.335938 Z M 123.78125 259.699219 C 124.027344 255.527344 125.019531 248.480469 122.191406 244.457031 C 120.804688 242.472656 118.871094 241.480469 118.871094 241.480469 C 117.136719 240.585938 115.5 240.535156 114.609375 240.585938 C 113.070312 241.777344 111.78125 242.671875 110.742188 243.265625 L 110.742188 254.089844 L 103.304688 250.265625 C 103.15625 249.621094 102.710938 246.890625 104.296875 244.210938 C 105.386719 242.421875 106.875 241.53125 107.617188 241.132812 C 107.667969 240.984375 107.714844 240.785156 107.765625 240.585938 C 106.972656 240.6875 104.941406 240.984375 103.15625 242.621094 C 100.378906 245.105469 100.429688 248.628906 100.429688 249.175781 L 95.570312 246.988281 L 93.191406 250.265625 L 97.75 254.238281 L 97.15625 257.066406 L 91.703125 258.902344 L 103.601562 263.46875 L 103.253906 258.902344 L 111.433594 263.023438 L 112.773438 262.179688 C 112.625 264.164062 112.476562 266.300781 112.425781 268.535156 C 112.375 271.957031 112.527344 275.136719 112.773438 278.0625 C 114.460938 278.363281 116.886719 278.5625 119.714844 278.164062 C 121.996094 277.816406 123.878906 277.171875 125.265625 276.574219 C 123.632812 269.527344 123.53125 263.769531 123.78125 259.699219 Z M 198.742188 149 C 197.15625 146.917969 193.984375 143.988281 187.339844 142.300781 C 187.4375 142.945312 188.183594 149.796875 185.207031 151.382812 C 182.480469 152.875 176.679688 149.746094 172.167969 142.300781 C 169.34375 142.25 164.878906 142.597656 160.269531 144.929688 C 158.832031 145.675781 156.800781 146.867188 151.59375 151.882812 C 148.917969 154.460938 145.296875 158.136719 141.28125 162.800781 C 145 166.226562 148.71875 169.652344 152.4375 173.125 L 162.105469 163.199219 C 163.046875 166.773438 163.890625 171.042969 164.335938 175.855469 C 164.832031 180.820312 164.832031 185.238281 164.582031 189.011719 C 169.738281 189.410156 175.339844 189.65625 181.339844 189.65625 C 186.296875 189.605469 190.957031 189.410156 195.371094 189.011719 C 194.726562 186.132812 194.230469 182.359375 194.628906 177.941406 C 194.777344 176.253906 195.074219 174.714844 195.371094 173.324219 C 195.71875 173.722656 196.015625 174.070312 196.363281 174.46875 L 206.179688 161.3125 C 205.335938 159.824219 204.046875 157.640625 202.460938 154.957031 C 200.429688 151.582031 199.386719 149.894531 198.742188 149"/><path fill="#0F0E0C" d="M 234.933594 111.175781 C 234.886719 111.175781 234.835938 111.175781 234.734375 111.226562 C 234.089844 111.421875 233.792969 112.863281 234.390625 114.550781 C 234.933594 116.238281 236.023438 117.234375 236.667969 117.035156 C 237.3125 116.835938 237.613281 115.394531 237.015625 113.707031 C 236.519531 112.121094 235.53125 111.175781 234.933594 111.175781 Z M 236.472656 117.730469 C 235.429688 117.730469 234.289062 116.539062 233.695312 114.75 C 233.050781 112.765625 233.398438 110.925781 234.488281 110.53125 C 235.578125 110.183594 236.96875 111.421875 237.660156 113.410156 C 238.304688 115.394531 237.957031 117.234375 236.867188 117.628906 C 236.71875 117.730469 236.621094 117.730469 236.472656 117.730469"/><g clip-path="url(#a)"><path fill="#0F0E0C" d="M 83.820312 258.753906 C 83.917969 258.605469 83.917969 258.40625 83.769531 258.257812 C 42.171875 224.703125 20.359375 184.644531 23.828125 148.257812 C 26.109375 124.429688 43.414062 86.207031 74.597656 75.785156 C 78.414062 74.492188 88.679688 71.761719 101.816406 73.597656 C 108.90625 74.59375 115.003906 76.675781 120.558594 79.953125 C 120.707031 80.050781 120.953125 80.003906 121.054688 79.855469 C 121.152344 79.707031 121.101562 79.457031 120.953125 79.359375 C 115.300781 76.03125 109.105469 73.898438 101.964844 72.90625 C 88.679688 71.070312 78.265625 73.847656 74.449219 75.140625 C 56.601562 81.046875 44.800781 95.242188 38.007812 106.113281 C 29.976562 118.96875 24.425781 134.707031 23.136719 148.15625 C 21.300781 167.667969 26.257812 187.71875 37.957031 207.824219 C 48.269531 225.59375 63.988281 243.21875 83.324219 258.804688 C 83.375 258.855469 83.472656 258.902344 83.523438 258.902344 C 83.621094 258.902344 83.71875 258.855469 83.820312 258.753906 Z M 226.902344 313.160156 C 221.398438 313.160156 215.796875 312.910156 210.097656 312.363281 C 185.007812 310.03125 164.929688 302.933594 156.351562 299.957031 C 141.183594 294.644531 125.316406 287 110.492188 277.914062 C 110.34375 277.816406 110.292969 277.617188 110.394531 277.417969 C 110.492188 277.269531 110.691406 277.21875 110.890625 277.320312 C 125.714844 286.402344 141.527344 294 156.648438 299.308594 C 209.054688 317.726562 255.757812 316.78125 295.46875 296.53125 C 316.292969 285.808594 365.375 255.429688 368.5 203.953125 C 368.796875 199.238281 370.382812 157.042969 339.59375 132.917969 C 329.878906 125.324219 312.773438 116.339844 286.398438 116.933594 C 277.125 117.132812 271.820312 118.769531 265.027344 120.855469 C 261.707031 121.898438 257.9375 123.039062 253.230469 124.132812 C 252.535156 124.28125 251.34375 124.578125 249.808594 124.878906 C 249.609375 124.925781 249.460938 124.777344 249.410156 124.628906 C 249.363281 124.429688 249.511719 124.28125 249.660156 124.230469 C 251.195312 123.882812 252.386719 123.636719 253.082031 123.488281 C 257.742188 122.394531 261.507812 121.253906 264.832031 120.210938 C 271.671875 118.125 277.027344 116.488281 286.398438 116.289062 C 312.921875 115.695312 330.222656 124.726562 339.992188 132.421875 C 371.078125 156.746094 369.441406 199.285156 369.144531 204.050781 C 367.707031 228.175781 356.003906 250.515625 334.386719 270.46875 C 326.703125 277.566406 313.765625 287.941406 295.617188 297.175781 C 274.746094 307.796875 251.691406 313.160156 226.902344 313.160156"/></g></svg>